<svg width="276" height="444" viewBox="0 0 276 444" fill="none" xmlns="http://www.w3.org/2000/svg">
<g filter="url(#filter0_di_1_111)">
<g clip-path="url(#clip0_1_111)">
<rect x="16" y="60" width="186" height="296" rx="16" fill="white"/>
<path d="M89.5758 222.607L89.5029 222.595V222.813L104.218 240.176L109.297 251.323L104.218 240.176L89.5758 222.607Z" fill="#111111"/>
<path d="M120.44 335.334L149.859 307.978L160.37 298.204L120.44 335.334Z" fill="#111111"/>
<path d="M202 73.5749C202 66.1075 195.888 60 188.415 60H174.721L202 98.624V73.5749Z" fill="#111111"/>
<path d="M202 73.5749C202 66.1075 195.888 60 188.415 60H174.721L202 98.624V73.5749Z" fill="url(#paint0_linear_1_111)"/>
<path d="M161.84 121.342L165.06 123.625L202 110.827V98.624L174.72 60H158.741L161.84 121.33V121.342Z" fill="#111111"/>
<path d="M161.84 121.342L165.06 123.625L202 110.827V98.624L174.72 60H158.741L161.84 121.33V121.342Z" fill="url(#paint1_linear_1_111)"/>
<path d="M202 149.827V110.827L165.06 123.624L202 149.827Z" fill="#111111"/>
<path d="M202 149.827V110.827L165.06 123.624L202 149.827Z" fill="url(#paint2_linear_1_111)"/>
<path d="M161.718 121.257L155.934 60H110.586L94.4853 73.5627L161.718 121.257Z" fill="#111111"/>
<path d="M161.718 121.257L155.934 60H110.586L94.4853 73.5627L161.718 121.257Z" fill="url(#paint3_linear_1_111)"/>
<path d="M110.586 60H70.207L94.4853 73.5627L110.586 60Z" fill="#111111"/>
<path d="M110.586 60H70.207L94.4853 73.5627L110.586 60Z" fill="url(#paint4_linear_1_111)"/>
<path d="M94.4853 73.5627L70.207 60H29.5852C29.172 60 28.771 60.0243 28.37 60.0607L63.9855 109.163L94.4731 73.5627H94.4853Z" fill="#111111"/>
<path d="M94.4853 73.5627L70.207 60H29.5852C29.172 60 28.771 60.0243 28.37 60.0607L63.9855 109.163L94.4731 73.5627H94.4853Z" fill="url(#paint5_linear_1_111)"/>
<path d="M28.3822 60.0613C21.4681 60.6805 16 66.5209 16 73.5754V116.619L63.9976 109.176L28.3822 60.0613Z" fill="#111111"/>
<path d="M28.3822 60.0613C21.4681 60.6805 16 66.5209 16 73.5754V116.619L63.9976 109.176L28.3822 60.0613Z" fill="url(#paint6_linear_1_111)"/>
<path d="M162.144 124.632L94.4853 73.5627L89.5761 167.47L132.519 162.892L122.47 163.694L202 154.514V150.289L162.144 124.632Z" fill="#111111"/>
<path d="M162.144 124.632L94.4853 73.5627L89.5761 167.47L132.519 162.892L122.47 163.694L202 154.514V150.289L162.144 124.632Z" fill="url(#paint7_linear_1_111)"/>
<path d="M165.06 123.625L161.84 121.342L162.144 124.632L165.06 123.625Z" fill="#111111"/>
<path d="M165.06 123.625L161.84 121.342L162.144 124.632L165.06 123.625Z" fill="url(#paint8_linear_1_111)"/>
<path d="M165.06 123.625L161.84 121.342L162.144 124.632L165.06 123.625Z" fill="url(#paint9_linear_1_111)"/>
<path d="M162.144 124.632L202 150.289V149.827L165.06 123.625L162.144 124.632Z" fill="#111111"/>
<path d="M162.144 124.632L202 150.289V149.827L165.06 123.625L162.144 124.632Z" fill="url(#paint10_linear_1_111)"/>
<path d="M162.144 124.632L202 150.289V149.827L165.06 123.625L162.144 124.632Z" fill="url(#paint11_linear_1_111)"/>
<path d="M161.84 121.342L161.986 124.086L161.718 121.257L94.4853 73.5627L162.144 124.632L161.84 121.342Z" fill="#111111"/>
<path d="M161.84 121.342L161.986 124.086L161.718 121.257L94.4853 73.5627L162.144 124.632L161.84 121.342Z" fill="url(#paint12_linear_1_111)"/>
<path d="M161.84 121.342L161.986 124.086L161.718 121.257L94.4853 73.5627L162.144 124.632L161.84 121.342Z" fill="url(#paint13_linear_1_111)"/>
<path d="M63.9976 109.163L16 116.619V128.591L54.1429 147.302L63.9976 109.163Z" fill="#111111"/>
<path d="M63.9976 109.163L16 116.619V128.591L54.1429 147.302L63.9976 109.163Z" fill="url(#paint14_linear_1_111)"/>
<path d="M63.9973 109.163L54.1426 147.301L89.5758 167.469L94.4849 73.5625L63.9973 109.163Z" fill="#111111"/>
<path d="M63.9973 109.163L54.1426 147.301L89.5758 167.469L94.4849 73.5625L63.9973 109.163Z" fill="url(#paint15_linear_1_111)"/>
<path d="M89.5761 167.47L181.695 218.199C189.824 222.546 197.079 226.456 202 229.103V155.183L132.519 162.892L89.5761 167.47Z" fill="#111111"/>
<path d="M89.5761 167.47L181.695 218.199C189.824 222.546 197.079 226.456 202 229.103V155.572L132.519 162.892L89.5761 167.47Z" fill="url(#paint16_linear_1_111)"/>
<path d="M202 231.009V229.577C176.993 217.422 128.643 190.613 128.643 190.613C137.878 194.923 162.265 207.83 181.695 218.224L89.5761 167.47L104.218 201.164L202 230.997V231.009Z" fill="#111111"/>
<path d="M202 231.009V229.577C176.993 217.422 128.643 190.613 128.643 190.613C137.878 194.923 162.265 207.83 181.695 218.224L89.5761 167.47L104.218 201.164L202 230.997V231.009Z" fill="url(#paint17_linear_1_111)"/>
<path d="M119.031 218.576L202 231.956V231.009L104.219 201.164L119.031 218.576Z" fill="#111111"/>
<path d="M119.031 218.576L202 231.956V231.009L104.219 201.164L119.031 218.576Z" fill="url(#paint18_linear_1_111)"/>
<path d="M165.036 257.066L202 236.655V231.956L119.031 218.576L165.036 257.066Z" fill="#111111"/>
<path d="M165.036 257.066L202 236.655V231.956L119.031 218.576L165.036 257.066Z" fill="url(#paint19_linear_1_111)"/>
<path d="M165.035 257.066L160.369 298.204L202 307.832V236.655L165.035 257.066Z" fill="#111111"/>
<path d="M165.035 257.066L160.369 298.204L202 307.832V236.655L165.035 257.066Z" fill="url(#paint20_linear_1_111)"/>
<path d="M118.776 218.406L119.906 253.885L119.031 218.576L104.219 201.164V240.177L109.298 251.323L118.776 272.098V218.406Z" fill="#111111"/>
<path d="M118.776 218.406L119.906 253.885L119.031 218.576L104.219 201.164V240.177L109.298 251.323L118.776 272.098V218.406Z" fill="url(#paint21_linear_1_111)"/>
<path d="M89.5761 222.607L104.218 240.177V201.164L89.5761 167.47V222.607Z" fill="#111111"/>
<path d="M89.5761 222.607L104.218 240.177V201.164L89.5761 167.47V222.607Z" fill="url(#paint22_linear_1_111)"/>
<path d="M118.776 272.11L109.298 251.323L104.218 240.177L16 212.687V216.548L118.776 273.082V272.11Z" fill="#111111"/>
<path d="M118.776 272.11L109.298 251.323L104.218 240.177L16 212.687V216.548L118.776 273.082V272.11Z" fill="url(#paint23_linear_1_111)"/>
<path d="M16 216.839V217.046L43.6928 232.612L16 216.839Z" fill="#111111"/>
<path d="M16 216.839V217.046L43.6928 232.612L16 216.839Z" fill="url(#paint24_linear_1_111)"/>
<path d="M109.298 251.323L118.776 272.11V272.098L109.298 251.323Z" fill="#111111"/>
<path d="M109.298 251.323L118.776 272.11V272.098L109.298 251.323Z" fill="url(#paint25_linear_1_111)"/>
<path d="M109.298 251.323L118.776 272.11V272.098L109.298 251.323Z" fill="url(#paint26_linear_1_111)"/>
<path d="M89.5032 222.813V223.25L46.2932 215.31L16 210.198V212.687L104.218 240.177L89.5032 222.813Z" fill="#111111"/>
<path d="M89.5032 222.813V223.25L46.2932 215.31L16 210.198V212.687L104.218 240.177L89.5032 222.813Z" fill="url(#paint27_linear_1_111)"/>
<path d="M65.6138 293.177L120.44 335.334V276.299L43.6928 232.6L16 217.046V224.258L65.5166 293.043L65.6138 293.177Z" fill="#111111"/>
<path d="M65.6138 293.177L120.44 335.334V276.299L43.6928 232.6L16 217.046V224.258L65.5166 293.043L65.6138 293.177Z" fill="url(#paint28_linear_1_111)"/>
<path d="M87.5222 218.224L89.5029 185.914V222.449L89.5758 222.607V167.47L54.1426 147.302L87.5222 218.224Z" fill="#111111"/>
<path d="M87.5222 218.224L89.5029 185.914V222.449L89.5758 222.607V167.47L54.1426 147.302L87.5222 218.224Z" fill="url(#paint29_linear_1_111)"/>
<path d="M87.5226 218.224L54.1429 147.302L16 187.528V209.906L87.3646 220.725L87.5226 218.224Z" fill="#111111"/>
<path d="M87.5226 218.224L54.1429 147.302L16 187.528V209.906L87.3646 220.725L87.5226 218.224Z" fill="url(#paint30_linear_1_111)"/>
<path d="M89.5029 222.596L89.5769 222.609L89.5029 222.449V222.596Z" fill="#111111"/>
<path d="M89.5029 222.596L89.5769 222.609L89.5029 222.449V222.596Z" fill="url(#paint31_linear_1_111)"/>
<path d="M31.1648 212.529L87.3646 220.81V220.725L16 209.906V210.198L46.2932 215.31L31.1648 212.529Z" fill="#111111"/>
<path d="M31.1648 212.529L87.3646 220.81V220.725L16 209.906V210.198L46.2932 215.31L31.1648 212.529Z" fill="url(#paint32_linear_1_111)"/>
<path d="M31.1648 212.529L87.3646 220.81V220.725L16 209.906V210.198L46.2932 215.31L31.1648 212.529Z" fill="url(#paint33_linear_1_111)"/>
<path d="M54.1426 147.302L87.5222 218.224L54.1426 147.302Z" fill="#111111"/>
<path d="M54.1426 147.302L87.5222 218.224L54.1426 147.302Z" fill="url(#paint34_linear_1_111)"/>
<path d="M54.1426 147.302L87.5222 218.224L54.1426 147.302Z" fill="url(#paint35_linear_1_111)"/>
<path d="M16 128.591V187.528L54.1429 147.302L16 128.591Z" fill="#111111"/>
<path d="M16 128.591V187.528L54.1429 147.302L16 128.591Z" fill="url(#paint36_linear_1_111)"/>
<path d="M52.0165 312.689L45.3211 324.03L65.6138 293.177L16 230.305V342.425C16 348.229 19.7061 353.207 24.8583 355.138L26.3894 352.807L52.0165 312.701V312.689Z" fill="#111111"/>
<path d="M52.0165 312.689L45.3211 324.03L65.6138 293.177L16 230.305V342.425C16 348.229 19.7061 353.207 24.8583 355.138L26.3894 352.807L52.0165 312.701V312.689Z" fill="url(#paint37_linear_1_111)"/>
<path d="M65.6016 293.153C50.777 274.162 23.6675 235.684 23.6675 235.684L65.5166 293.043L16 224.258V230.305L65.6138 293.177V293.153H65.6016Z" fill="#111111"/>
<path d="M65.6016 293.153C50.777 274.162 23.6675 235.684 23.6675 235.684L65.5166 293.043L16 224.258V230.305L65.6138 293.177V293.153H65.6016Z" fill="url(#paint38_linear_1_111)"/>
<path d="M65.6016 293.153C50.777 274.162 23.6675 235.684 23.6675 235.684L65.5166 293.043L16 224.258V230.305L65.6138 293.177V293.153H65.6016Z" fill="url(#paint39_linear_1_111)"/>
<path d="M24.8583 355.126H24.8948L26.3894 352.794L24.8583 355.126Z" fill="#111111"/>
<path d="M24.8583 355.126H24.8948L26.3894 352.794L24.8583 355.126Z" fill="url(#paint40_linear_1_111)"/>
<path d="M120.441 335.334L65.6142 293.177L45.3215 324.03L26.6328 355.66C27.5806 355.879 28.577 356 29.5856 356H75.4689L120.441 335.334Z" fill="#111111"/>
<path d="M120.441 335.334L65.6142 293.177L45.3215 324.03L26.6328 355.66C27.5806 355.879 28.577 356 29.5856 356H75.4689L120.441 335.334Z" fill="url(#paint41_linear_1_111)"/>
<path d="M75.4688 356H120.441V335.334L75.4688 356Z" fill="#111111"/>
<path d="M75.4688 356H120.441V335.334L75.4688 356Z" fill="url(#paint42_linear_1_111)"/>
<path d="M119.906 253.885L120.599 275.85L160.37 298.204L165.036 257.066L119.031 218.576L119.906 253.885Z" fill="#111111"/>
<path d="M119.906 253.885L120.599 275.85L160.37 298.204L165.036 257.066L119.031 218.576L119.906 253.885Z" fill="url(#paint43_linear_1_111)"/>
<path d="M160.369 298.204L149.858 307.978L160.369 298.204Z" fill="#111111"/>
<path d="M160.369 298.204L149.858 307.978L160.369 298.204Z" fill="url(#paint44_linear_1_111)"/>
<path d="M122.993 336.111L122.021 356H188.415C195.888 356 202 349.893 202 342.425V307.832L160.37 298.204L122.993 336.111Z" fill="#111111"/>
<path d="M122.993 336.111L122.021 356H188.415C195.888 356 202 349.893 202 342.425V307.832L160.37 298.204L122.993 336.111Z" fill="url(#paint45_linear_1_111)"/>
<path d="M120.623 276.409L120.44 276.299V335.334L160.37 298.204L120.598 275.85L120.623 276.409Z" fill="#111111"/>
<path d="M120.623 276.409L120.44 276.299V335.334L160.37 298.204L120.598 275.85L120.623 276.409Z" fill="url(#paint46_linear_1_111)"/>
<path d="M158.741 60H156.165L161.84 121.33L158.741 60Z" fill="#ED1C24"/>
<path opacity="0.9" d="M161.84 121.342V121.33L156.165 60H155.934L161.718 121.257L161.84 121.342Z" fill="#ED1C24"/>
<path d="M161.84 121.342L161.719 121.257L161.986 124.086L161.84 121.342Z" fill="#ED1C24"/>
<path opacity="0.9" d="M132.519 162.892L202 155.473V154.514L122.47 163.693L132.519 162.892Z" fill="#ED1C24"/>
<path opacity="0.1" d="M132.519 162.892L202 157.367V155.473L132.519 162.892Z" fill="#ED1C24"/>
<path d="M202 229.382V229.103C197.079 226.444 189.824 222.546 181.695 218.199L202 229.382Z" fill="#ED1C24"/>
<path opacity="0.9" d="M202 229.564V229.382L181.695 218.199C162.265 207.806 137.878 194.899 128.643 190.588C128.643 190.588 176.98 217.398 202 229.552V229.564Z" fill="#ED1C24"/>
<path d="M26.3896 352.806L45.3214 324.03L52.0167 312.689L26.3896 352.806Z" fill="#ED1C24"/>
<path d="M26.3894 352.807L24.8948 355.15C25.4537 355.356 26.037 355.539 26.6324 355.672L45.3211 324.042L26.4015 352.807H26.3894Z" fill="#ED1C24"/>
<path d="M89.2842 222.546L89.5029 222.814V222.595L89.2842 222.546Z" fill="#ED1C24"/>
<path d="M46.2932 215.31L89.5032 223.25V222.813L89.2845 222.546L46.2932 215.31Z" fill="#ED1C24"/>
<path opacity="0.9" d="M89.5032 185.914L87.5226 218.224L89.5032 222.449V185.914Z" fill="#ED1C24"/>
<path d="M89.2842 222.546L89.5029 222.595V222.449L87.5222 218.224L87.3643 220.725L87.7896 220.786L89.2842 222.546Z" fill="#ED1C24"/>
<path opacity="0.9" d="M87.7899 220.786L87.3646 220.725V220.81L31.1648 212.529L46.2932 215.31L89.2845 222.546L87.7899 220.786Z" fill="#ED1C24"/>
<path opacity="0.9" d="M118.775 272.098L120.44 275.753L119.905 253.885L118.775 218.406V272.098Z" fill="#ED1C24"/>
<path opacity="0.9" d="M120.44 275.753L118.776 272.11V273.082L16 216.548V216.839L43.6928 232.612L120.44 275.753Z" fill="#ED1C24"/>
<path d="M120.44 275.753L118.775 272.098V272.11L120.44 275.753Z" fill="#ED1C24"/>
<path d="M120.44 275.753L43.6924 232.612L120.44 276.299V275.753Z" fill="#ED1C24"/>
<path d="M120.441 275.753L120.599 275.85L119.906 253.885L120.441 275.753Z" fill="#ED1C24"/>
<path d="M120.44 276.299L120.623 276.409L120.598 275.85L120.44 275.753V276.299Z" fill="#ED1C24"/>
<path d="M65.5166 293.043L65.5902 293.153V293.178L65.5166 293.043Z" fill="#ED1C24"/>
<path d="M23.667 235.696C23.667 235.696 50.7765 274.175 65.6011 293.165L65.5282 293.056L23.667 235.696Z" fill="#ED1C24"/>
<path d="M120.44 335.334L149.859 307.978L120.44 335.334Z" fill="#ED1C24"/>
<path d="M160.37 298.204L149.859 307.978L120.44 335.334V356H122.02L122.992 336.111L160.37 298.204Z" fill="#ED1C24"/>
<rect x="16" y="60" width="186" height="296" fill="url(#paint47_linear_1_111)" fill-opacity="0.9"/>
<path fill-rule="evenodd" clip-rule="evenodd" d="M140.194 86.251V75.5174H164.072L156.1 86.251H140.194ZM158.701 86.251L164.764 75.5174H188.168V86.251H158.689H158.701Z" fill="#0862AB"/>
<path d="M188.374 75.3231H140V86.4453H156.283L156.501 86.3239L163.756 76.5495L158.689 85.5225L158.069 86.4453H188.374V75.3231ZM163.331 75.8817L155.906 85.8746H140.559V75.8817H163.331ZM187.803 75.8817V85.8746H159.333L164.983 75.8817H187.803Z" fill="white"/>
<path fill-rule="evenodd" clip-rule="evenodd" d="M170.341 83.4343C170.439 83.325 170.706 82.56 170.779 82.5479H173.015L173.416 83.4343H174.327L173.148 80.8358C172.954 80.3987 172.747 79.9738 172.553 79.5366L172.03 78.3953C171.982 78.2739 171.994 78.2617 171.933 78.2617C171.885 78.2739 171.897 78.2617 171.872 78.3346L171.301 79.5488C171.095 79.9738 170.9 80.4109 170.694 80.848L169.624 83.1186C169.588 83.2036 169.503 83.3614 169.479 83.4464H170.341V83.4343ZM171.083 81.8315C171.119 81.6979 171.86 80.0102 171.909 79.9738L172.711 81.8315H171.095H171.083ZM182.626 80.8116C182.76 80.6901 183.052 80.338 183.197 80.2166L184.607 78.7231C184.692 78.626 184.814 78.5288 184.874 78.4196H183.963C183.878 78.4196 183.89 78.4196 183.841 78.4438L183.003 79.3302C183.003 79.3302 182.918 79.4152 182.869 79.4759C182.505 79.8645 182.14 80.253 181.764 80.6416C181.739 79.9616 181.764 79.1238 181.764 78.4074H180.901V83.4221H181.764V83.3493C181.776 82.7543 181.764 82.0258 181.764 81.4065V81.0908L183.914 83.325C183.999 83.41 183.951 83.4221 184.109 83.4221H185.117L184.498 82.7664C184.388 82.6693 184.303 82.5479 184.194 82.4386L183.088 81.2972C183.088 81.2972 182.979 81.2001 182.93 81.1394C182.869 81.0665 182.663 80.8723 182.626 80.7994V80.8116ZM168.008 80.7508C168.373 80.5809 168.677 80.3987 168.762 79.9373C168.859 79.4274 168.677 79.0145 168.409 78.7838C168.118 78.5288 167.692 78.4317 167.206 78.4196C166.696 78.4196 166.173 78.4196 165.663 78.4196V83.4343C166.186 83.4464 166.842 83.4585 167.364 83.4221C167.85 83.3857 168.251 83.2643 168.579 82.9486C168.859 82.6693 168.993 82.1108 168.871 81.6129C168.713 80.9208 168.166 80.848 168.033 80.763L168.008 80.7508ZM166.477 80.4959V79.0752C166.793 79.0388 167.437 79.0631 167.692 79.2452C167.838 79.3545 167.923 79.5124 167.923 79.7673C167.911 80.4716 167 80.6173 166.477 80.4959ZM166.477 82.7179V81.1515C166.854 81.0908 167.51 81.1394 167.79 81.358C168.081 81.5887 168.118 82.1836 167.79 82.4872C167.534 82.73 166.769 82.7907 166.465 82.7179H166.477ZM176.016 80.253C176.077 80.2894 176.769 81.0301 176.842 81.103C176.976 81.2487 177.11 81.3822 177.243 81.5279C177.571 81.8801 177.948 82.2443 178.264 82.5964L179.066 83.4343C179.224 83.5921 179.187 83.5921 179.309 83.5921V78.4196H178.458V81.6008L177.231 80.3259C177.158 80.2652 177.097 80.1802 177.025 80.1073C176.964 80.0345 176.891 79.9738 176.818 79.9009C176.368 79.4031 175.858 78.9052 175.408 78.4196C175.372 78.3831 175.348 78.3467 175.311 78.3103C175.263 78.2617 175.263 78.2617 175.165 78.2617V83.4343H176.004V80.2652L176.016 80.253Z" fill="white"/>
<path fill-rule="evenodd" clip-rule="evenodd" d="M152.735 83.3611C153.865 83.7739 155.481 83.7497 155.809 82.3776C156.028 81.4427 155.518 80.8841 154.764 80.4713L154.035 80.0585C153.428 79.7063 153.707 79.0992 154.412 79.2207C154.619 79.2571 154.813 79.3299 154.983 79.4149C155.165 79.4999 155.311 79.5971 155.469 79.6699V78.5043C155.275 78.4557 155.092 78.3829 154.874 78.3343C152.686 77.8365 152.042 79.7913 153.063 80.7141C153.209 80.8477 153.318 80.9327 153.501 81.042C153.829 81.2484 154.108 81.3698 154.436 81.6005C154.995 81.9769 154.716 82.7054 153.683 82.499C153.185 82.4019 152.747 82.074 152.626 82.0376L152.723 83.3611H152.735ZM151.52 82.3897H149.6V81.3941H151.228V80.3742H149.6V79.4635H151.508V78.4314H148.47V83.434H151.52V82.3897ZM144.837 81.0541C144.837 81.0541 144.849 81.0298 144.861 81.1027V83.434H146.015C146.04 82.8147 146.015 81.9648 146.015 81.297V81.0663C146.015 80.9934 146.015 81.0298 146.04 81.0055C146.161 80.7991 147.449 79.0871 147.704 78.7593C147.789 78.65 147.875 78.5407 147.935 78.4314H146.684L145.554 79.9977C145.456 79.9006 144.545 78.4436 144.509 78.4314H143.087L143.524 79.0871C143.67 79.3056 143.828 79.5242 143.962 79.7428L144.849 81.0541H144.837Z" fill="white"/>
<path fill-rule="evenodd" clip-rule="evenodd" d="M166.611 72.1662L156.963 89.238L154.181 86.2996L156.076 86.3603L166.611 72.1662Z" fill="#ED1C24"/>
<path d="M164.971 75.8331L164.643 75.651L166.769 71.8626L163.938 75.7967L163.646 75.5781L169.066 68.5479L164.971 75.8331Z" fill="white"/>
<path d="M156.988 89.5415L154.047 86.421L154.314 86.1782L156.939 88.9466L158.664 86.2267L158.98 86.421L156.988 89.5415Z" fill="white"/>
<path d="M45.5791 148H41.3461C40.3261 148 39.4761 147.15 39.4761 146.147V142.713C39.4761 141.914 40.0881 141.115 40.8871 140.945V137.222C40.8871 136.61 41.3971 136.083 42.0091 136.083H44.8821C45.4941 136.083 46.0211 136.61 46.0211 137.222V140.945C46.8201 141.115 47.4151 141.88 47.4151 142.713V146.164C47.4151 147.15 46.5651 148 45.5791 148ZM43.7091 140.877V138.395H43.1821V140.877H43.7091ZM45.1201 145.705V143.172H41.8221V145.705H45.1201Z" fill="white"/>
<path d="M55.2595 148H49.6495C48.9865 148 48.4935 147.49 48.4935 146.827C48.4935 146.147 49.0715 145.705 49.6495 145.705H51.3325V138.395H49.6835C49.1565 138.395 48.5275 137.97 48.5275 137.222C48.5275 136.61 49.0205 136.083 49.6665 136.083H53.6275V145.705H54.1035V143.257C54.1035 142.696 54.6135 142.101 55.2595 142.101C55.8715 142.101 56.4325 142.645 56.4325 143.24V146.844C56.4325 147.456 55.9055 148 55.2595 148Z" fill="white"/>
<path d="M64.2599 148H57.4769V142.713C57.4769 141.659 58.3779 140.86 59.3129 140.86H63.0869V138.395H58.5819C58.0719 138.395 57.4259 137.97 57.4259 137.222C57.4259 136.576 57.9359 136.083 58.5819 136.083H63.5629C64.5489 136.083 65.3989 136.933 65.3989 137.902V141.302C65.3989 142.424 64.4979 143.172 63.5629 143.172H59.7719V145.705H64.2599C64.7869 145.705 65.3989 146.164 65.3989 146.827C65.3989 147.524 64.8719 148 64.2599 148Z" fill="white"/>
<path d="M70.5494 146.844V144.379H66.3674V137.239C66.3674 136.627 66.8604 136.083 67.5064 136.083C68.1014 136.083 68.6794 136.593 68.6794 137.239V142.067H70.5494V138.463C70.5494 137.868 70.9744 137.29 71.6884 137.29C72.2664 137.29 72.8614 137.732 72.8614 138.446V142.169C73.2694 142.39 73.5584 142.696 73.5584 143.223C73.5584 143.631 73.3034 144.141 72.8614 144.294V146.844C72.8614 147.507 72.3514 148 71.7054 148C71.1614 148 70.5494 147.575 70.5494 146.844Z" fill="white"/>
<path d="M43.5221 173.844V171.379H39.3401V164.239C39.3401 163.627 39.8331 163.083 40.4791 163.083C41.0741 163.083 41.6521 163.593 41.6521 164.239V169.067H43.5221V165.463C43.5221 164.868 43.9471 164.29 44.6611 164.29C45.2391 164.29 45.8341 164.732 45.8341 165.446V169.169C46.2421 169.39 46.5311 169.696 46.5311 170.223C46.5311 170.631 46.2761 171.141 45.8341 171.294V173.844C45.8341 174.507 45.3241 175 44.6781 175C44.1341 175 43.5221 174.575 43.5221 173.844Z" fill="white"/>
<path d="M54.3654 175H47.5824V169.713C47.5824 168.659 48.4834 167.86 49.4184 167.86H53.1924V165.395H48.6874C48.1774 165.395 47.5314 164.97 47.5314 164.222C47.5314 163.576 48.0414 163.083 48.6874 163.083H53.6684C54.6544 163.083 55.5044 163.933 55.5044 164.902V168.302C55.5044 169.424 54.6034 170.172 53.6684 170.172H49.8774V172.705H54.3654C54.8924 172.705 55.5044 173.164 55.5044 173.827C55.5044 174.524 54.9774 175 54.3654 175Z" fill="white"/>
<path d="M63.4939 175H57.8839C57.2209 175 56.7279 174.49 56.7279 173.827C56.7279 173.147 57.3059 172.705 57.8839 172.705H59.5669V165.395H57.9179C57.3909 165.395 56.7619 164.97 56.7619 164.222C56.7619 163.61 57.2549 163.083 57.9009 163.083H61.8619V172.705H62.3379V170.257C62.3379 169.696 62.8479 169.101 63.4939 169.101C64.1059 169.101 64.6669 169.645 64.6669 170.24V173.844C64.6669 174.456 64.1399 175 63.4939 175Z" fill="white"/>
<path d="M72.4943 175H65.7113V169.713C65.7113 168.659 66.6123 167.86 67.5473 167.86H71.3213V165.395H66.8163C66.3063 165.395 65.6603 164.97 65.6603 164.222C65.6603 163.576 66.1703 163.083 66.8163 163.083H71.7973C72.7833 163.083 73.6333 163.933 73.6333 164.902V168.302C73.6333 169.424 72.7323 170.172 71.7973 170.172H68.0063V172.705H72.4943C73.0213 172.705 73.6333 173.164 73.6333 173.827C73.6333 174.524 73.1063 175 72.4943 175Z" fill="white"/>
<path d="M45.7151 202H40.8021C40.2411 202 39.6461 201.575 39.6461 200.844C39.6461 200.198 40.1391 199.705 40.8021 199.705H45.2391V197.427C45.2391 197.308 45.1201 197.172 45.0011 197.172H42.1961C41.6011 197.172 41.0401 196.611 41.0401 196.016C41.0401 195.336 41.6181 194.86 42.1961 194.86H45.0351C45.1371 194.86 45.2561 194.741 45.2561 194.622V192.395H40.7511C40.2411 192.395 39.5951 191.97 39.5951 191.222C39.5951 190.61 40.0881 190.083 40.7511 190.083H45.7151C46.7181 190.083 47.5681 190.933 47.5681 191.902V194.537C47.5681 195.149 47.4321 195.642 47.1431 196.016C47.4321 196.441 47.5681 196.9 47.5681 197.427V200.164C47.5681 201.116 46.7691 202 45.7151 202Z" fill="white"/>
<path d="M52.7193 200.844V198.379H48.5373V191.239C48.5373 190.627 49.0303 190.083 49.6763 190.083C50.2713 190.083 50.8493 190.593 50.8493 191.239V196.067H52.7193V192.463C52.7193 191.868 53.1443 191.29 53.8583 191.29C54.4363 191.29 55.0313 191.732 55.0313 192.446V196.169C55.4393 196.39 55.7283 196.696 55.7283 197.223C55.7283 197.631 55.4733 198.141 55.0313 198.294V200.844C55.0313 201.507 54.5213 202 53.8753 202C53.3313 202 52.7193 201.575 52.7193 200.844Z" fill="white"/>
<path d="M62.5427 202H59.3297C58.9727 202 58.6157 201.932 58.2247 201.762L57.1877 201.337C56.6947 201.133 56.4737 200.776 56.4737 200.232C56.4737 199.705 56.9497 199.093 57.5617 199.093C57.7827 199.093 57.9867 199.127 58.2247 199.246L59.3297 199.705H62.0837V197.172H57.9017V191.273L59.0917 190.083H63.2397C63.8347 190.083 64.4127 190.61 64.4127 191.222C64.4127 191.834 63.8857 192.395 63.2397 192.395H60.2137V194.877H62.5427C63.5627 194.877 64.4127 195.795 64.4127 196.713V200.164C64.4127 201.116 63.6137 202 62.5427 202Z" fill="white"/>
<path d="M72.4263 202H66.8503C66.2553 202 65.6773 201.49 65.6773 200.861V191.222C65.6773 190.576 66.2043 190.083 66.8503 190.083H67.5473C68.1593 190.083 68.6863 190.644 68.6863 191.222C68.6863 191.698 68.3293 192.174 68.0063 192.293V196.084H72.4433C73.0893 196.084 73.5993 196.662 73.5993 197.24V200.844C73.5993 201.507 73.0383 202 72.4263 202ZM71.2703 199.705V198.396H67.9723V199.705H71.2703Z" fill="white"/>
<path d="M42.0771 227.861V224.342C42.0771 223.917 42.2131 223.594 42.4851 223.356L44.8991 221.316V219.395H41.4651C41.2441 219.769 40.9041 219.973 40.4451 219.973C39.7991 219.973 39.2891 219.446 39.2891 218.817V218.239C39.2891 217.593 39.7311 217.083 40.4451 217.083H47.2111V221.826C47.2111 222.166 47.0751 222.472 46.7861 222.727L44.4061 224.801V227.827C44.4061 228.371 43.9301 229 43.2671 229C42.6551 229 42.0771 228.541 42.0771 227.861Z" fill="white"/>
<path d="M53.6474 229H49.4144C48.3944 229 47.5444 228.15 47.5444 227.147V223.713C47.5444 222.914 48.1564 222.115 48.9554 221.945V218.222C48.9554 217.61 49.4654 217.083 50.0774 217.083H52.9504C53.5624 217.083 54.0894 217.61 54.0894 218.222V221.945C54.8884 222.115 55.4834 222.88 55.4834 223.713V227.164C55.4834 228.15 54.6334 229 53.6474 229ZM51.7774 221.877V219.395H51.2504V221.877H51.7774ZM53.1884 226.705V224.172H49.8904V226.705H53.1884Z" fill="white"/>
<path d="M62.9029 229H62.2059C61.6619 229 61.0839 228.575 61.0839 227.844C61.0839 227.385 61.3049 226.96 61.7639 226.807V222.982H57.3099C56.7319 222.982 56.1539 222.506 56.1539 221.843V218.222C56.1539 217.644 56.5959 217.066 57.3099 217.066H62.9029C63.5319 217.066 64.0589 217.61 64.0589 218.222V227.844C64.0589 228.473 63.5829 229 62.9029 229ZM61.7979 220.636V219.395H58.4829V220.636H61.7979Z" fill="white"/>
<path d="M71.4823 229H67.1473C66.0763 229 65.3283 228.269 65.3283 227.198V218.885C65.3283 217.882 66.2123 217.083 67.1473 217.083H71.4993C72.4853 217.083 73.2673 217.967 73.2673 218.885V227.198C73.2673 228.201 72.4513 229 71.4823 229ZM70.9723 226.705V219.412H67.6573V226.705H70.9723Z" fill="white"/>
<path d="M45.5791 148H41.3461C40.3261 148 39.4761 147.15 39.4761 146.147V142.713C39.4761 141.914 40.0881 141.115 40.8871 140.945V137.222C40.8871 136.61 41.3971 136.083 42.0091 136.083H44.8821C45.4941 136.083 46.0211 136.61 46.0211 137.222V140.945C46.8201 141.115 47.4151 141.88 47.4151 142.713V146.164C47.4151 147.15 46.5651 148 45.5791 148ZM43.7091 140.877V138.395H43.1821V140.877H43.7091ZM45.1201 145.705V143.172H41.8221V145.705H45.1201Z" stroke="#070606" stroke-width="0.8"/>
<path d="M55.2595 148H49.6495C48.9865 148 48.4935 147.49 48.4935 146.827C48.4935 146.147 49.0715 145.705 49.6495 145.705H51.3325V138.395H49.6835C49.1565 138.395 48.5275 137.97 48.5275 137.222C48.5275 136.61 49.0205 136.083 49.6665 136.083H53.6275V145.705H54.1035V143.257C54.1035 142.696 54.6135 142.101 55.2595 142.101C55.8715 142.101 56.4325 142.645 56.4325 143.24V146.844C56.4325 147.456 55.9055 148 55.2595 148Z" stroke="#070606" stroke-width="0.8"/>
<path d="M64.2599 148H57.4769V142.713C57.4769 141.659 58.3779 140.86 59.3129 140.86H63.0869V138.395H58.5819C58.0719 138.395 57.4259 137.97 57.4259 137.222C57.4259 136.576 57.9359 136.083 58.5819 136.083H63.5629C64.5489 136.083 65.3989 136.933 65.3989 137.902V141.302C65.3989 142.424 64.4979 143.172 63.5629 143.172H59.7719V145.705H64.2599C64.7869 145.705 65.3989 146.164 65.3989 146.827C65.3989 147.524 64.8719 148 64.2599 148Z" stroke="#070606" stroke-width="0.8"/>
<path d="M70.5494 146.844V144.379H66.3674V137.239C66.3674 136.627 66.8604 136.083 67.5064 136.083C68.1014 136.083 68.6794 136.593 68.6794 137.239V142.067H70.5494V138.463C70.5494 137.868 70.9744 137.29 71.6884 137.29C72.2664 137.29 72.8614 137.732 72.8614 138.446V142.169C73.2694 142.39 73.5584 142.696 73.5584 143.223C73.5584 143.631 73.3034 144.141 72.8614 144.294V146.844C72.8614 147.507 72.3514 148 71.7054 148C71.1614 148 70.5494 147.575 70.5494 146.844Z" stroke="#070606" stroke-width="0.8"/>
<path d="M43.5221 173.844V171.379H39.3401V164.239C39.3401 163.627 39.8331 163.083 40.4791 163.083C41.0741 163.083 41.6521 163.593 41.6521 164.239V169.067H43.5221V165.463C43.5221 164.868 43.9471 164.29 44.6611 164.29C45.2391 164.29 45.8341 164.732 45.8341 165.446V169.169C46.2421 169.39 46.5311 169.696 46.5311 170.223C46.5311 170.631 46.2761 171.141 45.8341 171.294V173.844C45.8341 174.507 45.3241 175 44.6781 175C44.1341 175 43.5221 174.575 43.5221 173.844Z" stroke="#070606" stroke-width="0.8"/>
<path d="M54.3654 175H47.5824V169.713C47.5824 168.659 48.4834 167.86 49.4184 167.86H53.1924V165.395H48.6874C48.1774 165.395 47.5314 164.97 47.5314 164.222C47.5314 163.576 48.0414 163.083 48.6874 163.083H53.6684C54.6544 163.083 55.5044 163.933 55.5044 164.902V168.302C55.5044 169.424 54.6034 170.172 53.6684 170.172H49.8774V172.705H54.3654C54.8924 172.705 55.5044 173.164 55.5044 173.827C55.5044 174.524 54.9774 175 54.3654 175Z" stroke="#070606" stroke-width="0.8"/>
<path d="M63.4939 175H57.8839C57.2209 175 56.7279 174.49 56.7279 173.827C56.7279 173.147 57.3059 172.705 57.8839 172.705H59.5669V165.395H57.9179C57.3909 165.395 56.7619 164.97 56.7619 164.222C56.7619 163.61 57.2549 163.083 57.9009 163.083H61.8619V172.705H62.3379V170.257C62.3379 169.696 62.8479 169.101 63.4939 169.101C64.1059 169.101 64.6669 169.645 64.6669 170.24V173.844C64.6669 174.456 64.1399 175 63.4939 175Z" stroke="#070606" stroke-width="0.8"/>
<path d="M72.4943 175H65.7113V169.713C65.7113 168.659 66.6123 167.86 67.5473 167.86H71.3213V165.395H66.8163C66.3063 165.395 65.6603 164.97 65.6603 164.222C65.6603 163.576 66.1703 163.083 66.8163 163.083H71.7973C72.7833 163.083 73.6333 163.933 73.6333 164.902V168.302C73.6333 169.424 72.7323 170.172 71.7973 170.172H68.0063V172.705H72.4943C73.0213 172.705 73.6333 173.164 73.6333 173.827C73.6333 174.524 73.1063 175 72.4943 175Z" stroke="#070606" stroke-width="0.8"/>
<path d="M45.7151 202H40.8021C40.2411 202 39.6461 201.575 39.6461 200.844C39.6461 200.198 40.1391 199.705 40.8021 199.705H45.2391V197.427C45.2391 197.308 45.1201 197.172 45.0011 197.172H42.1961C41.6011 197.172 41.0401 196.611 41.0401 196.016C41.0401 195.336 41.6181 194.86 42.1961 194.86H45.0351C45.1371 194.86 45.2561 194.741 45.2561 194.622V192.395H40.7511C40.2411 192.395 39.5951 191.97 39.5951 191.222C39.5951 190.61 40.0881 190.083 40.7511 190.083H45.7151C46.7181 190.083 47.5681 190.933 47.5681 191.902V194.537C47.5681 195.149 47.4321 195.642 47.1431 196.016C47.4321 196.441 47.5681 196.9 47.5681 197.427V200.164C47.5681 201.116 46.7691 202 45.7151 202Z" stroke="#070606" stroke-width="0.8"/>
<path d="M52.7193 200.844V198.379H48.5373V191.239C48.5373 190.627 49.0303 190.083 49.6763 190.083C50.2713 190.083 50.8493 190.593 50.8493 191.239V196.067H52.7193V192.463C52.7193 191.868 53.1443 191.29 53.8583 191.29C54.4363 191.29 55.0313 191.732 55.0313 192.446V196.169C55.4393 196.39 55.7283 196.696 55.7283 197.223C55.7283 197.631 55.4733 198.141 55.0313 198.294V200.844C55.0313 201.507 54.5213 202 53.8753 202C53.3313 202 52.7193 201.575 52.7193 200.844Z" stroke="#070606" stroke-width="0.8"/>
<path d="M62.5427 202H59.3297C58.9727 202 58.6157 201.932 58.2247 201.762L57.1877 201.337C56.6947 201.133 56.4737 200.776 56.4737 200.232C56.4737 199.705 56.9497 199.093 57.5617 199.093C57.7827 199.093 57.9867 199.127 58.2247 199.246L59.3297 199.705H62.0837V197.172H57.9017V191.273L59.0917 190.083H63.2397C63.8347 190.083 64.4127 190.61 64.4127 191.222C64.4127 191.834 63.8857 192.395 63.2397 192.395H60.2137V194.877H62.5427C63.5627 194.877 64.4127 195.795 64.4127 196.713V200.164C64.4127 201.116 63.6137 202 62.5427 202Z" stroke="#070606" stroke-width="0.8"/>
<path d="M72.4263 202H66.8503C66.2553 202 65.6773 201.49 65.6773 200.861V191.222C65.6773 190.576 66.2043 190.083 66.8503 190.083H67.5473C68.1593 190.083 68.6863 190.644 68.6863 191.222C68.6863 191.698 68.3293 192.174 68.0063 192.293V196.084H72.4433C73.0893 196.084 73.5993 196.662 73.5993 197.24V200.844C73.5993 201.507 73.0383 202 72.4263 202ZM71.2703 199.705V198.396H67.9723V199.705H71.2703Z" stroke="#070606" stroke-width="0.8"/>
<path d="M42.0771 227.861V224.342C42.0771 223.917 42.2131 223.594 42.4851 223.356L44.8991 221.316V219.395H41.4651C41.2441 219.769 40.9041 219.973 40.4451 219.973C39.7991 219.973 39.2891 219.446 39.2891 218.817V218.239C39.2891 217.593 39.7311 217.083 40.4451 217.083H47.2111V221.826C47.2111 222.166 47.0751 222.472 46.7861 222.727L44.4061 224.801V227.827C44.4061 228.371 43.9301 229 43.2671 229C42.6551 229 42.0771 228.541 42.0771 227.861Z" stroke="#070606" stroke-width="0.8"/>
<path d="M53.6474 229H49.4144C48.3944 229 47.5444 228.15 47.5444 227.147V223.713C47.5444 222.914 48.1564 222.115 48.9554 221.945V218.222C48.9554 217.61 49.4654 217.083 50.0774 217.083H52.9504C53.5624 217.083 54.0894 217.61 54.0894 218.222V221.945C54.8884 222.115 55.4834 222.88 55.4834 223.713V227.164C55.4834 228.15 54.6334 229 53.6474 229ZM51.7774 221.877V219.395H51.2504V221.877H51.7774ZM53.1884 226.705V224.172H49.8904V226.705H53.1884Z" stroke="#070606" stroke-width="0.8"/>
<path d="M62.9029 229H62.2059C61.6619 229 61.0839 228.575 61.0839 227.844C61.0839 227.385 61.3049 226.96 61.7639 226.807V222.982H57.3099C56.7319 222.982 56.1539 222.506 56.1539 221.843V218.222C56.1539 217.644 56.5959 217.066 57.3099 217.066H62.9029C63.5319 217.066 64.0589 217.61 64.0589 218.222V227.844C64.0589 228.473 63.5829 229 62.9029 229ZM61.7979 220.636V219.395H58.4829V220.636H61.7979Z" stroke="#070606" stroke-width="0.8"/>
<path d="M71.4823 229H67.1473C66.0763 229 65.3283 228.269 65.3283 227.198V218.885C65.3283 217.882 66.2123 217.083 67.1473 217.083H71.4993C72.4853 217.083 73.2673 217.967 73.2673 218.885V227.198C73.2673 228.201 72.4513 229 71.4823 229ZM70.9723 226.705V219.412H67.6573V226.705H70.9723Z" stroke="#070606" stroke-width="0.8"/>
<path opacity="0.1" fill-rule="evenodd" clip-rule="evenodd" d="M84.0001 136C84.0001 135.724 83.7763 135.5 83.5001 135.5C83.224 135.5 83.0001 135.724 83.0001 136V147.622L30.3745 162.516C30.3373 162.526 30.3018 162.539 30.2684 162.557C30.2017 162.592 30.1451 162.64 30.1013 162.698C30.0575 162.756 30.026 162.824 30.0107 162.897C30.0029 162.934 29.9993 162.972 30.0001 163.011L30.0001 175C30.0001 175.276 30.224 175.5 30.5001 175.5C30.7763 175.5 31.0001 175.276 31.0001 175V163.378L83.6363 148.481C83.8515 148.42 84.0001 148.224 84.0001 148V136Z" fill="white"/>
<path opacity="0.1" fill-rule="evenodd" clip-rule="evenodd" d="M84.0001 163C84.0001 162.724 83.7763 162.5 83.5001 162.5C83.224 162.5 83.0001 162.724 83.0001 163V174.622L30.3745 189.516C30.3373 189.526 30.3018 189.539 30.2684 189.557C30.2017 189.592 30.1451 189.64 30.1013 189.698C30.0575 189.756 30.026 189.824 30.0107 189.897C30.0029 189.934 29.9993 189.972 30.0001 190.011L30.0001 202C30.0001 202.276 30.224 202.5 30.5001 202.5C30.7763 202.5 31.0001 202.276 31.0001 202V190.378L83.6363 175.481C83.8515 175.42 84.0001 175.224 84.0001 175V163Z" fill="white"/>
<path opacity="0.1" fill-rule="evenodd" clip-rule="evenodd" d="M84.0001 189C84.0001 188.724 83.7763 188.5 83.5001 188.5C83.224 188.5 83.0001 188.724 83.0001 189V200.622L30.3745 215.516C30.3373 215.526 30.3018 215.539 30.2684 215.557C30.2017 215.592 30.1451 215.64 30.1013 215.698C30.0575 215.756 30.026 215.824 30.0107 215.897C30.0029 215.934 29.9993 215.972 30.0001 216.011L30.0001 228C30.0001 228.276 30.224 228.5 30.5001 228.5C30.7763 228.5 31.0001 228.276 31.0001 228V216.378L83.6363 201.481C83.8515 201.42 84.0001 201.224 84.0001 201V189Z" fill="white"/>
<path d="M120.212 220.332L121.472 222.572L117.636 224L121.472 225.428L120.184 227.724L116.992 225.204L117.58 229.264H115.004L115.536 225.204L112.344 227.78L111 225.4L114.808 223.972L111 222.6L112.288 220.304L115.564 222.824L115.004 218.736H117.608L116.992 222.824L120.212 220.332Z" fill="url(#paint48_linear_1_111)" fill-opacity="0.3"/>
<path d="M134.321 220.332L135.581 222.572L131.745 224L135.581 225.428L134.293 227.724L131.101 225.204L131.689 229.264H129.113L129.645 225.204L126.453 227.78L125.109 225.4L128.917 223.972L125.109 222.6L126.397 220.304L129.673 222.824L129.113 218.736H131.717L131.101 222.824L134.321 220.332Z" fill="url(#paint49_linear_1_111)" fill-opacity="0.3"/>
<path d="M148.431 220.332L149.691 222.572L145.855 224L149.691 225.428L148.403 227.724L145.211 225.204L145.799 229.264H143.223L143.755 225.204L140.563 227.78L139.219 225.4L143.027 223.972L139.219 222.6L140.507 220.304L143.783 222.824L143.223 218.736H145.827L145.211 222.824L148.431 220.332Z" fill="url(#paint50_linear_1_111)" fill-opacity="0.3"/>
<path d="M168.94 218.08C169.291 218.026 169.645 217.999 170 218C173.18 218 176.17 220.29 177.91 224C177.644 224.565 177.343 225.112 177.01 225.64C176.904 225.804 176.849 225.995 176.85 226.19C176.852 226.408 176.926 226.62 177.059 226.792C177.193 226.965 177.38 227.089 177.59 227.146C177.801 227.202 178.025 227.188 178.227 227.106C178.429 227.024 178.599 226.878 178.71 226.69C179.176 225.958 179.581 225.189 179.92 224.39C179.974 224.265 180.001 224.131 180.001 223.995C180.001 223.859 179.974 223.725 179.92 223.6C177.9 218.91 174.1 216 170 216C169.531 215.998 169.062 216.038 168.6 216.12C168.469 216.142 168.343 216.19 168.23 216.261C168.117 216.332 168.02 216.424 167.943 216.533C167.866 216.642 167.811 216.765 167.781 216.894C167.751 217.024 167.748 217.159 167.77 217.29C167.792 217.421 167.84 217.547 167.911 217.66C167.982 217.773 168.074 217.87 168.183 217.947C168.292 218.024 168.415 218.079 168.544 218.109C168.674 218.139 168.809 218.142 168.94 218.12V218.08ZM161.71 214.29C161.617 214.197 161.506 214.123 161.384 214.072C161.262 214.022 161.132 213.996 161 213.996C160.868 213.996 160.738 214.022 160.616 214.072C160.494 214.123 160.383 214.197 160.29 214.29C160.102 214.478 159.996 214.734 159.996 215C159.996 215.266 160.102 215.522 160.29 215.71L163.39 218.8C161.976 220.162 160.85 221.794 160.08 223.6C160.025 223.726 159.997 223.862 159.997 224C159.997 224.138 160.025 224.274 160.08 224.4C162.1 229.09 165.9 232 170 232C171.797 231.988 173.552 231.452 175.05 230.46L178.29 233.71C178.383 233.804 178.494 233.878 178.615 233.929C178.737 233.98 178.868 234.006 179 234.006C179.132 234.006 179.263 233.98 179.385 233.929C179.506 233.878 179.617 233.804 179.71 233.71C179.804 233.617 179.878 233.506 179.929 233.385C179.98 233.263 180.006 233.132 180.006 233C180.006 232.868 179.98 232.737 179.929 232.615C179.878 232.494 179.804 232.383 179.71 232.29L161.71 214.29ZM168.07 223.48L170.52 225.93C170.351 225.978 170.176 226.002 170 226C169.47 226 168.961 225.789 168.586 225.414C168.211 225.039 168 224.53 168 224C167.998 223.824 168.022 223.649 168.07 223.48ZM170 230C166.82 230 163.83 227.71 162.1 224C162.746 222.574 163.663 221.287 164.8 220.21L166.57 222C166.154 222.759 165.996 223.632 166.118 224.488C166.241 225.345 166.638 226.139 167.25 226.75C167.861 227.362 168.655 227.759 169.512 227.882C170.368 228.004 171.241 227.846 172 227.43L173.59 229C172.501 229.641 171.263 229.986 170 230Z" fill="#A90808"/>
<path d="M72.4545 87.5867C72.5153 87.4288 72.9284 86.7246 73.0378 86.5789C73.0864 86.6031 73.1471 86.6274 73.1957 86.6639C73.8276 87.016 74.4959 87.2467 75.2128 87.356C77.5702 87.7202 79.8668 86.7246 81.2156 84.8304C81.7988 84.0047 82.1634 83.0941 82.2971 82.0984C82.7102 78.9172 80.7174 76.1974 77.9833 75.3717C77.2178 75.141 76.4401 75.056 75.6503 75.1289C72.8069 75.3839 70.6926 77.4844 70.1579 79.9614C69.8906 81.2363 69.9999 82.4748 70.5103 83.689C70.6196 83.9683 70.729 84.2354 70.7898 84.539C71.0449 85.8261 70.4617 87.1374 69.3438 87.8295C68.8213 88.1452 68.2623 88.303 67.6426 88.303C66.6948 88.303 65.7591 88.303 64.8113 88.303C64.3374 88.303 63.8635 88.303 63.3896 88.303C62.5876 88.303 61.895 88.0238 61.2874 87.5017C61.1295 87.3681 60.9958 87.2224 60.8743 87.0645C60.85 87.0403 60.8378 87.0038 60.8014 86.9553C60.8743 86.8338 60.9715 86.7367 61.0566 86.6274C61.1295 86.5182 61.2145 86.4089 61.2996 86.3117C61.3847 86.2025 61.4576 86.081 61.5426 85.9596C61.5791 86.0325 61.6155 86.0689 61.6398 86.1175C61.9558 86.6396 62.4175 86.9553 63.0129 87.0888C63.1223 87.1131 63.2438 87.1253 63.3532 87.1253C64.7992 87.1253 66.2573 87.1253 67.7033 87.1253C68.5418 87.1253 69.3195 86.5667 69.5868 85.7168C69.9392 84.5754 69.1858 83.3733 68.0071 83.1791C67.8735 83.1548 67.7398 83.1548 67.6061 83.1426C67.0715 83.1426 66.5368 83.1426 66.0143 83.1426C65.9292 83.1426 65.832 83.1427 65.747 83.1062C65.5526 83.0334 65.4189 82.8877 65.3703 82.6813C65.3581 82.5963 65.346 82.5113 65.346 82.4141C65.346 80.5928 65.346 78.7836 65.346 76.9623C65.346 76.7802 65.346 76.5981 65.2974 76.4159C65.103 75.5174 64.301 74.8739 63.4139 74.8375C62.454 74.801 61.6034 75.4446 61.3847 76.3674C61.3482 76.5252 61.3239 76.6831 61.3239 76.8409C61.3239 77.1566 61.3239 77.4723 61.3239 77.788C61.3239 78.7958 61.3239 79.8157 61.3239 80.8235C61.3239 81.1878 61.2996 81.5399 61.2388 81.9042C61.1173 82.6084 60.9351 83.3005 60.6556 83.9683C60.1209 85.2554 59.246 86.2632 58.1038 87.0524C57.2411 87.6474 56.2811 88.0359 55.2361 88.218C51.2383 88.8859 47.678 86.3117 46.8274 82.6691C46.7423 82.3048 46.6937 81.9406 46.6573 81.5642C46.6573 81.4792 46.6573 81.4063 46.7302 81.3456C47.0704 81.0178 47.4107 80.6899 47.763 80.3621C47.7752 80.35 47.7995 80.3378 47.836 80.3135C47.836 80.35 47.836 80.3743 47.836 80.3985C47.7266 81.5763 47.921 82.7055 48.4678 83.7498C49.4035 85.5468 50.8616 86.6396 52.8423 87.0524C56.2447 87.6595 59.2582 85.4861 59.9873 82.402C60.0845 81.977 60.1452 81.552 60.1452 81.1271C60.1452 79.8157 60.1452 78.5044 60.1452 77.193C60.1452 77.0716 60.1452 76.9502 60.1452 76.8288C60.1574 75.6874 60.6556 74.7889 61.6155 74.1696C63.4625 72.9919 65.9414 73.9754 66.4396 76.1852C66.5004 76.4402 66.5125 76.6952 66.5125 76.9623C66.5125 78.5408 66.5125 80.1314 66.5125 81.7099C66.5125 81.7949 66.5125 81.8677 66.5368 81.9649C66.6097 81.9649 66.6705 81.9649 66.7312 81.9649C66.9986 81.9649 67.278 81.9649 67.5454 81.9649C67.9585 81.9649 68.3717 82.0256 68.7605 82.1591C68.7848 82.1591 68.8213 82.1713 68.8577 82.1834C68.8577 82.1349 68.8577 82.0984 68.8577 82.062C68.8334 81.7706 68.8091 81.467 68.8213 81.1756C68.8577 79.415 69.4288 77.8487 70.571 76.5009C71.6647 75.2139 73.0499 74.3882 74.7146 74.0604C78.7003 73.2833 82.3578 75.7724 83.2813 79.4757C83.4757 80.2528 83.5365 81.0421 83.4757 81.8313C83.1962 85.1947 80.7538 87.7566 77.7646 88.4123C77.1571 88.5459 76.5373 88.6066 75.9176 88.5823C74.7268 88.5337 73.621 88.2302 72.576 87.6595C72.5274 87.6352 72.4666 87.5988 72.418 87.5624L72.4545 87.5867Z" fill="#ED1C24"/>
<path d="M58.8086 75.4446C58.8207 76.0031 58.8329 76.5495 58.8329 77.1323C58.7843 77.0959 58.76 77.0837 58.7478 77.0595C58.5777 76.8773 58.4076 76.6831 58.2253 76.5131C57.3383 75.6753 56.2933 75.1532 55.1024 74.9346C54.5313 74.8253 53.9602 74.8132 53.377 74.8739C52.2712 74.9953 51.2626 75.3839 50.3634 76.0395C50.2905 76.1002 50.2176 76.1609 50.1447 76.2217C49.0997 77.2416 48.0668 78.2615 47.0218 79.2815C46.232 80.0586 45.43 80.8235 44.6402 81.6006C44.4457 81.7827 44.4822 81.722 44.4822 81.977C44.4822 83.2641 44.4822 84.5633 44.4822 85.8503C44.4822 86.5667 44.2513 87.1981 43.7896 87.7324C43.1456 88.4852 42.3071 88.8373 41.3107 88.7766C40.1928 88.7159 39.0627 87.9509 38.6739 86.6881C38.5767 86.3846 38.5402 86.081 38.5402 85.7653C38.5402 84.5633 38.5402 83.3612 38.5402 82.1591C38.5402 81.8192 38.5767 81.9284 38.3579 81.6977C37.5317 80.8114 36.6932 79.9371 35.8669 79.0508C35.2472 78.3829 34.9799 77.5937 35.0771 76.6952C35.2229 75.3717 36.2193 74.3275 37.5195 74.1211C38.5038 73.9632 39.3665 74.2425 40.0834 74.9346C40.5087 75.3474 40.9219 75.7724 41.335 76.1852C41.3836 76.2338 41.4322 76.2824 41.4808 76.3188C41.5537 76.3188 41.5902 76.2581 41.6266 76.2217C42.0519 75.7967 42.4772 75.3717 42.9025 74.9467C43.2549 74.5946 43.6681 74.3518 44.142 74.2061C45.272 73.8661 46.4993 74.2304 47.2527 75.141C47.3013 75.1896 47.3378 75.2503 47.3742 75.2989C47.2891 75.4203 46.7545 75.9667 46.5601 76.1367C46.4872 76.1367 46.475 76.0638 46.4507 76.0152C46.1955 75.6631 45.8674 75.4203 45.4422 75.3231C44.8346 75.1774 44.2999 75.311 43.826 75.6995C43.7653 75.7481 43.7167 75.8088 43.6559 75.8574C43.1091 76.4038 42.5623 76.9502 42.0155 77.4966C41.979 77.533 41.9426 77.5694 41.9061 77.6059C41.6874 77.8244 41.2986 77.8244 41.0798 77.6059C41.0434 77.5694 41.0069 77.533 40.9705 77.4966C40.4115 76.938 39.8526 76.3795 39.2936 75.821C38.9777 75.5053 38.6131 75.3231 38.1757 75.2746C37.8597 75.2381 37.556 75.2989 37.2643 75.4203C36.1586 75.9302 35.8669 77.363 36.7054 78.2615C37.5803 79.1965 38.4551 80.1314 39.3422 81.0542C39.3786 81.0906 39.4151 81.1392 39.4637 81.1756C39.646 81.3335 39.7067 81.5399 39.7067 81.7827C39.7067 83.0941 39.7067 84.4176 39.7067 85.7411C39.7067 85.9232 39.7189 86.0932 39.7675 86.2632C39.9498 87.016 40.6545 87.5988 41.4687 87.6109C42.3314 87.6231 43.1334 87.0281 43.2792 86.081C43.2914 85.9718 43.2914 85.8625 43.2914 85.7532C43.2914 84.3811 43.2914 83.0091 43.2914 81.6249C43.2914 81.5885 43.2914 81.552 43.2914 81.5156C43.2914 81.3335 43.3521 81.1756 43.4858 81.0421C43.7045 80.8357 43.9111 80.6171 44.1177 80.4107C44.4943 80.0343 44.871 79.6579 45.2477 79.2815C45.8553 78.6865 46.475 78.1037 47.0826 77.5209C47.3864 77.2294 47.6901 76.938 47.9818 76.6466C48.164 76.4766 48.3342 76.2945 48.4921 76.1124C49.6951 74.801 51.1654 73.9511 52.9152 73.6111C54.4827 73.3076 55.9652 73.5868 57.3504 74.3761C57.8365 74.6553 58.2982 74.9953 58.7235 75.3596C58.7478 75.3839 58.7721 75.396 58.7964 75.4203L58.8086 75.4446Z" fill="#ED1C24"/>
<path d="M188.076 305.482L192.074 313.423L183.665 321.388L188.076 305.482Z" fill="#048040"/>
<path d="M185.294 305.482L189.304 313.423L180.883 321.388L185.294 305.482Z" fill="#F37124"/>
<path d="M121.062 318.498L125.059 304.11H131.451C133.444 304.11 134.78 304.426 135.461 305.081C136.129 305.725 136.263 306.781 135.862 308.262C135.619 309.137 135.242 309.865 134.732 310.448C134.221 311.031 133.553 311.492 132.727 311.82C133.419 311.99 133.869 312.33 134.076 312.828C134.27 313.326 134.258 314.066 134.015 315.013L133.529 317.017V317.065C133.383 317.636 133.432 317.94 133.65 317.964L133.504 318.498H129.179C129.191 318.158 129.215 317.855 129.251 317.6C129.288 317.345 129.324 317.138 129.361 317.005L129.762 315.572C129.968 314.831 129.981 314.309 129.786 314.006C129.604 313.702 129.166 313.544 128.498 313.544H126.688L125.302 318.51H121.074L121.062 318.498ZM127.562 310.29H129.507C130.187 310.29 130.685 310.193 131.001 309.987C131.317 309.78 131.548 309.452 131.682 308.942C131.815 308.432 131.791 308.08 131.585 307.886C131.378 307.692 130.904 307.595 130.151 307.595H128.316L127.562 310.29Z" fill="white"/>
<path d="M147.71 307.874L144.757 318.486H141.185L141.622 316.932C140.99 317.551 140.346 318.013 139.702 318.316C139.058 318.62 138.378 318.765 137.661 318.765C137.065 318.765 136.555 318.656 136.154 318.45C135.741 318.231 135.437 317.916 135.23 317.491C135.048 317.114 134.963 316.653 134.999 316.106C135.036 315.572 135.218 314.649 135.571 313.374L137.102 307.874H141.014L139.495 313.35C139.277 314.151 139.216 314.722 139.325 315.026C139.435 315.341 139.739 315.499 140.225 315.499C140.711 315.499 141.136 315.317 141.476 314.965C141.816 314.601 142.096 314.066 142.29 313.338L143.809 307.874H147.722H147.71Z" fill="white"/>
<path d="M146.288 318.498L150.274 304.11H155.766C156.981 304.11 157.917 304.183 158.585 304.341C159.254 304.486 159.776 304.729 160.165 305.069C160.651 305.518 160.955 306.077 161.076 306.745C161.186 307.413 161.125 308.19 160.87 309.112C160.42 310.715 159.63 311.954 158.524 312.816C157.407 313.666 156.021 314.091 154.357 314.091H151.793L150.577 318.498H146.3H146.288ZM152.765 310.582H154.138C155.025 310.582 155.657 310.472 156.021 310.254C156.374 310.047 156.629 309.659 156.787 309.112C156.933 308.554 156.896 308.165 156.665 307.959C156.434 307.74 155.863 307.631 154.952 307.631H153.579L152.765 310.582Z" fill="white"/>
<path d="M165.475 318.498L165.511 317.478C164.879 317.952 164.248 318.304 163.604 318.535C162.96 318.765 162.279 318.875 161.55 318.875C160.432 318.875 159.667 318.571 159.217 317.988C158.779 317.405 158.707 316.568 158.998 315.487C159.29 314.443 159.8 313.666 160.541 313.156C161.283 312.658 162.51 312.294 164.235 312.063C164.454 312.026 164.746 312.002 165.11 311.954C166.386 311.808 167.103 311.468 167.249 310.909C167.334 310.606 167.285 310.375 167.091 310.242C166.909 310.096 166.568 310.035 166.082 310.035C165.681 310.035 165.341 310.12 165.086 310.29C164.819 310.46 164.612 310.727 164.478 311.091H160.663C161.015 309.902 161.708 308.991 162.765 308.384C163.822 307.777 165.208 307.473 166.921 307.473C167.735 307.473 168.452 307.546 169.096 307.716C169.74 307.874 170.202 308.105 170.505 308.372C170.882 308.712 171.101 309.1 171.162 309.525C171.235 309.95 171.162 310.557 170.931 311.359L169.29 317.284C169.242 317.478 169.23 317.648 169.254 317.806C169.278 317.952 169.351 318.085 169.46 318.17L169.375 318.474H165.438L165.475 318.498ZM166.423 313.751C166.01 313.921 165.463 314.078 164.794 314.248C163.737 314.528 163.142 314.904 163.02 315.378C162.935 315.681 162.96 315.912 163.118 316.082C163.263 316.252 163.519 316.337 163.871 316.337C164.515 316.337 165.037 316.179 165.426 315.851C165.815 315.523 166.107 315.001 166.313 314.297C166.35 314.139 166.386 314.03 166.398 313.957L166.423 313.763" fill="white"/>
<path d="M169.436 322.675L170.31 319.53H171.428C171.805 319.53 172.097 319.458 172.303 319.324C172.51 319.19 172.656 318.948 172.741 318.632C172.777 318.498 172.801 318.341 172.826 318.171C172.838 318.001 172.838 317.806 172.826 317.588L172.23 307.874H176.192L176.131 314.309L179.594 307.874H183.276L177.164 318.438C176.471 319.615 175.961 320.429 175.645 320.866C175.329 321.303 175.025 321.643 174.734 321.874C174.357 322.19 173.932 322.42 173.482 322.554C173.032 322.687 172.34 322.76 171.404 322.76C171.137 322.76 170.833 322.76 170.493 322.736C170.165 322.724 169.812 322.7 169.448 322.675" fill="white"/>
<path fill-rule="evenodd" clip-rule="evenodd" d="M138.924 338.423L139.811 334.72H140.528C141.573 334.72 142.399 334.696 143.128 334.162C143.784 333.688 144.185 332.972 144.283 332.073C144.368 331.32 144.149 330.689 143.675 330.276C143.092 329.766 142.363 329.754 141.427 329.754H139.629L137.551 338.411H138.912L138.924 338.423ZM140.103 333.494L140.698 330.992H141.135C142.387 330.992 143.019 331.15 142.91 332.134C142.788 333.275 142.01 333.494 140.552 333.494H140.09H140.103ZM147.357 333.615L147.989 330.992H148.208C149.459 330.992 150.091 331.15 149.982 332.195C149.848 333.397 149.07 333.615 147.624 333.615H147.357ZM146.203 338.423L147.102 334.72H147.418L149.301 338.423H150.832L148.839 334.672C150.31 334.441 151.209 333.494 151.367 332.073C151.452 331.32 151.221 330.689 150.747 330.276C150.164 329.766 149.435 329.754 148.499 329.754H146.932L144.854 338.411H146.203V338.423ZM152.254 338.423H157.114L157.418 337.173H153.906L154.575 334.38H158.087L158.378 333.166H154.879L155.389 330.98H158.901L159.192 329.754H154.332L152.254 338.411V338.423ZM160.833 338.423L161.72 334.72H162.437C163.482 334.72 164.308 334.696 165.037 334.162C165.693 333.688 166.094 332.972 166.191 332.073C166.277 331.32 166.058 330.689 165.584 330.276C165.001 329.766 164.272 329.754 163.336 329.754H161.538L159.46 338.411H160.821L160.833 338.423ZM162.011 333.494L162.607 330.992H163.044C164.296 330.992 164.928 331.15 164.818 332.134C164.697 333.275 163.919 333.494 162.461 333.494H161.999H162.011ZM168.294 335.23L169.655 333.105C169.849 332.802 170.056 332.437 170.286 332C170.323 332.486 170.347 332.85 170.396 333.081L170.833 335.23H168.294ZM164.782 338.423L170.785 329.426L172.972 338.423H171.562L171.076 336.371H167.625L166.264 338.423H164.782ZM174.053 338.423H175.426L177.516 329.766H176.131L174.053 338.423ZM178.039 338.423H180.919C181.539 338.423 182.158 338.399 182.814 338.217C183.604 337.998 184.285 337.586 184.856 337.003C185.646 336.189 186.193 335.048 186.326 333.785C186.484 332.377 186.083 331.235 185.233 330.531C184.321 329.778 183.252 329.742 181.94 329.742H180.093L178.015 338.399L178.039 338.423ZM179.692 337.185L181.174 330.992H181.757C182.754 330.992 183.531 331.005 184.163 331.539C184.771 332.049 185.05 332.862 184.941 333.858C184.819 335.024 184.236 336.031 183.386 336.602C182.523 337.185 181.526 337.197 180.19 337.197H179.692V337.185Z" fill="white"/>
<path d="M55.444 275.688C55.444 275.008 55.58 274.412 55.852 273.9C56.132 273.38 56.516 272.98 57.004 272.7C57.492 272.42 58.052 272.28 58.684 272.28C59.484 272.28 60.144 272.472 60.664 272.856C61.192 273.232 61.548 273.772 61.732 274.476H60.256C60.136 274.148 59.944 273.892 59.68 273.708C59.416 273.524 59.084 273.432 58.684 273.432C58.124 273.432 57.676 273.632 57.34 274.032C57.012 274.424 56.848 274.976 56.848 275.688C56.848 276.4 57.012 276.956 57.34 277.356C57.676 277.756 58.124 277.956 58.684 277.956C59.476 277.956 60 277.608 60.256 276.912H61.732C61.54 277.584 61.18 278.12 60.652 278.52C60.124 278.912 59.468 279.108 58.684 279.108C58.052 279.108 57.492 278.968 57.004 278.688C56.516 278.4 56.132 278 55.852 277.488C55.58 276.968 55.444 276.368 55.444 275.688ZM65.7983 279.108C65.1743 279.108 64.6103 278.968 64.1063 278.688C63.6023 278.4 63.2063 278 62.9183 277.488C62.6303 276.968 62.4863 276.368 62.4863 275.688C62.4863 275.016 62.6343 274.42 62.9303 273.9C63.2263 273.38 63.6303 272.98 64.1423 272.7C64.6543 272.42 65.2263 272.28 65.8583 272.28C66.4903 272.28 67.0623 272.42 67.5743 272.7C68.0863 272.98 68.4903 273.38 68.7863 273.9C69.0823 274.42 69.2303 275.016 69.2303 275.688C69.2303 276.36 69.0783 276.956 68.7743 277.476C68.4703 277.996 68.0543 278.4 67.5263 278.688C67.0063 278.968 66.4303 279.108 65.7983 279.108ZM65.7983 277.92C66.1503 277.92 66.4783 277.836 66.7823 277.668C67.0943 277.5 67.3463 277.248 67.5383 276.912C67.7303 276.576 67.8263 276.168 67.8263 275.688C67.8263 275.208 67.7343 274.804 67.5503 274.476C67.3663 274.14 67.1223 273.888 66.8183 273.72C66.5143 273.552 66.1863 273.468 65.8343 273.468C65.4823 273.468 65.1543 273.552 64.8503 273.72C64.5543 273.888 64.3183 274.14 64.1423 274.476C63.9663 274.804 63.8783 275.208 63.8783 275.688C63.8783 276.4 64.0583 276.952 64.4183 277.344C64.7863 277.728 65.2463 277.92 65.7983 277.92ZM71.7857 273.36C72.0177 273.056 72.3337 272.8 72.7337 272.592C73.1337 272.384 73.5857 272.28 74.0897 272.28C74.6657 272.28 75.1897 272.424 75.6617 272.712C76.1417 272.992 76.5177 273.388 76.7897 273.9C77.0617 274.412 77.1977 275 77.1977 275.664C77.1977 276.328 77.0617 276.924 76.7897 277.452C76.5177 277.972 76.1417 278.38 75.6617 278.676C75.1897 278.964 74.6657 279.108 74.0897 279.108C73.5857 279.108 73.1377 279.008 72.7457 278.808C72.3537 278.6 72.0337 278.344 71.7857 278.04V282.144H70.4177V272.388H71.7857V273.36ZM75.8057 275.664C75.8057 275.208 75.7097 274.816 75.5177 274.488C75.3337 274.152 75.0857 273.9 74.7737 273.732C74.4697 273.556 74.1417 273.468 73.7897 273.468C73.4457 273.468 73.1177 273.556 72.8057 273.732C72.5017 273.908 72.2537 274.164 72.0617 274.5C71.8777 274.836 71.7857 275.232 71.7857 275.688C71.7857 276.144 71.8777 276.544 72.0617 276.888C72.2537 277.224 72.5017 277.48 72.8057 277.656C73.1177 277.832 73.4457 277.92 73.7897 277.92C74.1417 277.92 74.4697 277.832 74.7737 277.656C75.0857 277.472 75.3337 277.208 75.5177 276.864C75.7097 276.52 75.8057 276.12 75.8057 275.664ZM84.3375 272.388L80.2815 282.108H78.8655L80.2095 278.892L77.6055 272.388H79.1295L80.9895 277.428L82.9215 272.388H84.3375ZM87.701 275.664C87.701 275 87.837 274.412 88.109 273.9C88.389 273.388 88.765 272.992 89.237 272.712C89.717 272.424 90.249 272.28 90.833 272.28C91.265 272.28 91.689 272.376 92.105 272.568C92.529 272.752 92.865 273 93.113 273.312V270.12H94.493V279H93.113V278.004C92.889 278.324 92.577 278.588 92.177 278.796C91.785 279.004 91.333 279.108 90.821 279.108C90.245 279.108 89.717 278.964 89.237 278.676C88.765 278.38 88.389 277.972 88.109 277.452C87.837 276.924 87.701 276.328 87.701 275.664ZM93.113 275.688C93.113 275.232 93.017 274.836 92.825 274.5C92.641 274.164 92.397 273.908 92.093 273.732C91.789 273.556 91.461 273.468 91.109 273.468C90.757 273.468 90.429 273.556 90.125 273.732C89.821 273.9 89.573 274.152 89.381 274.488C89.197 274.816 89.105 275.208 89.105 275.664C89.105 276.12 89.197 276.52 89.381 276.864C89.573 277.208 89.821 277.472 90.125 277.656C90.437 277.832 90.765 277.92 91.109 277.92C91.461 277.92 91.789 277.832 92.093 277.656C92.397 277.48 92.641 277.224 92.825 276.888C93.017 276.544 93.113 276.144 93.113 275.688ZM102.185 275.532C102.185 275.78 102.169 276.004 102.137 276.204H97.0848C97.1248 276.732 97.3208 277.156 97.6728 277.476C98.0248 277.796 98.4568 277.956 98.9688 277.956C99.7048 277.956 100.225 277.648 100.529 277.032H102.005C101.805 277.64 101.441 278.14 100.913 278.532C100.393 278.916 99.7448 279.108 98.9688 279.108C98.3368 279.108 97.7688 278.968 97.2648 278.688C96.7688 278.4 96.3768 278 96.0888 277.488C95.8088 276.968 95.6688 276.368 95.6688 275.688C95.6688 275.008 95.8048 274.412 96.0768 273.9C96.3568 273.38 96.7448 272.98 97.2408 272.7C97.7448 272.42 98.3208 272.28 98.9688 272.28C99.5928 272.28 100.149 272.416 100.637 272.688C101.125 272.96 101.505 273.344 101.777 273.84C102.049 274.328 102.185 274.892 102.185 275.532ZM100.757 275.1C100.749 274.596 100.569 274.192 100.217 273.888C99.8648 273.584 99.4288 273.432 98.9088 273.432C98.4368 273.432 98.0328 273.584 97.6968 273.888C97.3608 274.184 97.1608 274.588 97.0968 275.1H100.757ZM104.962 273.504V277.164C104.962 277.412 105.018 277.592 105.13 277.704C105.25 277.808 105.45 277.86 105.73 277.86H106.57V279H105.49C104.874 279 104.402 278.856 104.074 278.568C103.746 278.28 103.582 277.812 103.582 277.164V273.504H102.802V272.388H103.582V270.744H104.962V272.388H106.57V273.504H104.962ZM107.21 275.664C107.21 275 107.346 274.412 107.618 273.9C107.898 273.388 108.274 272.992 108.746 272.712C109.226 272.424 109.754 272.28 110.33 272.28C110.85 272.28 111.302 272.384 111.686 272.592C112.078 272.792 112.39 273.044 112.622 273.348V272.388H114.002V279H112.622V278.016C112.39 278.328 112.074 278.588 111.674 278.796C111.274 279.004 110.818 279.108 110.306 279.108C109.738 279.108 109.218 278.964 108.746 278.676C108.274 278.38 107.898 277.972 107.618 277.452C107.346 276.924 107.21 276.328 107.21 275.664ZM112.622 275.688C112.622 275.232 112.526 274.836 112.334 274.5C112.15 274.164 111.906 273.908 111.602 273.732C111.298 273.556 110.97 273.468 110.618 273.468C110.266 273.468 109.938 273.556 109.634 273.732C109.33 273.9 109.082 274.152 108.89 274.488C108.706 274.816 108.614 275.208 108.614 275.664C108.614 276.12 108.706 276.52 108.89 276.864C109.082 277.208 109.33 277.472 109.634 277.656C109.946 277.832 110.274 277.92 110.618 277.92C110.97 277.92 111.298 277.832 111.602 277.656C111.906 277.48 112.15 277.224 112.334 276.888C112.526 276.544 112.622 276.144 112.622 275.688ZM116.33 271.512C116.082 271.512 115.874 271.428 115.706 271.26C115.538 271.092 115.454 270.884 115.454 270.636C115.454 270.388 115.538 270.18 115.706 270.012C115.874 269.844 116.082 269.76 116.33 269.76C116.57 269.76 116.774 269.844 116.942 270.012C117.11 270.18 117.194 270.388 117.194 270.636C117.194 270.884 117.11 271.092 116.942 271.26C116.774 271.428 116.57 271.512 116.33 271.512ZM117.002 272.388V279H115.634V272.388H117.002ZM120.001 270.12V279H118.633V270.12H120.001ZM124.032 279.108C123.512 279.108 123.044 279.016 122.628 278.832C122.22 278.64 121.896 278.384 121.656 278.064C121.416 277.736 121.288 277.372 121.272 276.972H122.688C122.712 277.252 122.844 277.488 123.084 277.68C123.332 277.864 123.64 277.956 124.008 277.956C124.392 277.956 124.688 277.884 124.896 277.74C125.112 277.588 125.22 277.396 125.22 277.164C125.22 276.916 125.1 276.732 124.86 276.612C124.628 276.492 124.256 276.36 123.744 276.216C123.248 276.08 122.844 275.948 122.532 275.82C122.22 275.692 121.948 275.496 121.716 275.232C121.492 274.968 121.38 274.62 121.38 274.188C121.38 273.836 121.484 273.516 121.692 273.228C121.9 272.932 122.196 272.7 122.58 272.532C122.972 272.364 123.42 272.28 123.924 272.28C124.676 272.28 125.28 272.472 125.736 272.856C126.2 273.232 126.448 273.748 126.48 274.404H125.112C125.088 274.108 124.968 273.872 124.752 273.696C124.536 273.52 124.244 273.432 123.876 273.432C123.516 273.432 123.24 273.5 123.048 273.636C122.856 273.772 122.76 273.952 122.76 274.176C122.76 274.352 122.824 274.5 122.952 274.62C123.08 274.74 123.236 274.836 123.42 274.908C123.604 274.972 123.876 275.056 124.236 275.16C124.716 275.288 125.108 275.42 125.412 275.556C125.724 275.684 125.992 275.876 126.216 276.132C126.44 276.388 126.556 276.728 126.564 277.152C126.564 277.528 126.46 277.864 126.252 278.16C126.044 278.456 125.748 278.688 125.364 278.856C124.988 279.024 124.544 279.108 124.032 279.108Z" fill="#A90808"/>
<path d="M47.5 273.45C47.4913 273.373 47.4746 273.298 47.45 273.225V273.15C47.4099 273.064 47.3565 272.986 47.2917 272.917L42.2917 267.917C42.2228 267.852 42.144 267.798 42.0583 267.758C42.0335 267.755 42.0082 267.755 41.9833 267.758C41.8987 267.71 41.8052 267.679 41.7083 267.667H38.3333C37.6703 267.667 37.0344 267.93 36.5656 268.399C36.0967 268.868 35.8333 269.504 35.8333 270.167V271H35C34.337 271 33.7011 271.263 33.2322 271.732C32.7634 272.201 32.5 272.837 32.5 273.5V281.833C32.5 282.496 32.7634 283.132 33.2322 283.601C33.7011 284.07 34.337 284.333 35 284.333H41.6667C42.3297 284.333 42.9656 284.07 43.4344 283.601C43.9033 283.132 44.1667 282.496 44.1667 281.833V281H45C45.663 281 46.2989 280.737 46.7678 280.268C47.2366 279.799 47.5 279.163 47.5 278.5V273.5C47.5 273.5 47.5 273.5 47.5 273.45ZM42.5 270.508L44.6583 272.667H43.3333C43.1123 272.667 42.9004 272.579 42.7441 272.423C42.5878 272.266 42.5 272.054 42.5 271.833V270.508ZM42.5 281.833C42.5 282.054 42.4122 282.266 42.2559 282.423C42.0996 282.579 41.8877 282.667 41.6667 282.667H35C34.779 282.667 34.567 282.579 34.4107 282.423C34.2545 282.266 34.1667 282.054 34.1667 281.833V273.5C34.1667 273.279 34.2545 273.067 34.4107 272.911C34.567 272.754 34.779 272.667 35 272.667H35.8333V278.5C35.8333 279.163 36.0967 279.799 36.5656 280.268C37.0344 280.737 37.6703 281 38.3333 281H42.5V281.833ZM45.8333 278.5C45.8333 278.721 45.7455 278.933 45.5893 279.089C45.433 279.246 45.221 279.333 45 279.333H38.3333C38.1123 279.333 37.9004 279.246 37.7441 279.089C37.5878 278.933 37.5 278.721 37.5 278.5V270.167C37.5 269.946 37.5878 269.734 37.7441 269.577C37.9004 269.421 38.1123 269.333 38.3333 269.333H40.8333V271.833C40.8333 272.496 41.0967 273.132 41.5656 273.601C42.0344 274.07 42.6703 274.333 43.3333 274.333H45.8333V278.5Z" fill="#A90808"/>
</g>
</g>
<defs>
<filter id="filter0_di_1_111" x="-58" y="0" width="334" height="444" filterUnits="userSpaceOnUse" color-interpolation-filters="sRGB">
<feFlood flood-opacity="0" result="BackgroundImageFix"/>
<feColorMatrix in="SourceAlpha" type="matrix" values="0 0 0 0 0 0 0 0 0 0 0 0 0 0 0 0 0 0 127 0" result="hardAlpha"/>
<feOffset dy="14"/>
<feGaussianBlur stdDeviation="37"/>
<feComposite in2="hardAlpha" operator="out"/>
<feColorMatrix type="matrix" values="0 0 0 0 0 0 0 0 0 0 0 0 0 0 0 0 0 0 0.7 0"/>
<feBlend mode="normal" in2="BackgroundImageFix" result="effect1_dropShadow_1_111"/>
<feBlend mode="normal" in="SourceGraphic" in2="effect1_dropShadow_1_111" result="shape"/>
<feColorMatrix in="SourceAlpha" type="matrix" values="0 0 0 0 0 0 0 0 0 0 0 0 0 0 0 0 0 0 127 0" result="hardAlpha"/>
<feOffset/>
<feGaussianBlur stdDeviation="4"/>
<feComposite in2="hardAlpha" operator="arithmetic" k2="-1" k3="1"/>
<feColorMatrix type="matrix" values="0 0 0 0 1 0 0 0 0 1 0 0 0 0 1 0 0 0 0.25 0"/>
<feBlend mode="normal" in2="shape" result="effect2_innerShadow_1_111"/>
</filter>
<linearGradient id="paint0_linear_1_111" x1="180.736" y1="89.3353" x2="228.177" y2="26.866" gradientUnits="userSpaceOnUse">
<stop stop-color="#120F11"/>
<stop offset="1" stop-color="#333232"/>
</linearGradient>
<linearGradient id="paint1_linear_1_111" x1="154.974" y1="91.8123" x2="208.926" y2="91.8123" gradientUnits="userSpaceOnUse">
<stop stop-color="#120F11"/>
<stop offset="1" stop-color="#333232"/>
</linearGradient>
<linearGradient id="paint2_linear_1_111" x1="213.677" y1="136.616" x2="170.081" y2="113.082" gradientUnits="userSpaceOnUse">
<stop stop-color="#120F11"/>
<stop offset="1" stop-color="#333232"/>
</linearGradient>
<linearGradient id="paint3_linear_1_111" x1="176.75" y1="103.76" x2="80.8524" y2="34.8334" gradientUnits="userSpaceOnUse">
<stop stop-color="#120F11"/>
<stop offset="1" stop-color="#333232"/>
</linearGradient>
<linearGradient id="paint4_linear_1_111" x1="90.4024" y1="73.1013" x2="90.4024" y2="52.2412" gradientUnits="userSpaceOnUse">
<stop stop-color="#120F11"/>
<stop offset="1" stop-color="#333232"/>
</linearGradient>
<linearGradient id="paint5_linear_1_111" x1="105.02" y1="72.9313" x2="-39.353" y2="101.641" gradientUnits="userSpaceOnUse">
<stop stop-color="#120F11"/>
<stop offset="1" stop-color="#333232"/>
</linearGradient>
<linearGradient id="paint6_linear_1_111" x1="3.80009" y1="83.5927" x2="99.3489" y2="108.264" gradientUnits="userSpaceOnUse">
<stop stop-color="#120F11"/>
<stop offset="1" stop-color="#333232"/>
</linearGradient>
<linearGradient id="paint7_linear_1_111" x1="147.769" y1="166.923" x2="121.499" y2="59.6872" gradientUnits="userSpaceOnUse">
<stop stop-color="#120F11"/>
<stop offset="1" stop-color="#333232"/>
</linearGradient>
<linearGradient id="paint8_linear_1_111" x1="154.974" y1="122.993" x2="208.926" y2="122.993" gradientUnits="userSpaceOnUse">
<stop stop-color="#120F11"/>
<stop offset="1" stop-color="#333232"/>
</linearGradient>
<linearGradient id="paint9_linear_1_111" x1="172.618" y1="160.84" x2="146.348" y2="53.5919" gradientUnits="userSpaceOnUse">
<stop stop-color="#120F11"/>
<stop offset="1" stop-color="#333232"/>
</linearGradient>
<linearGradient id="paint10_linear_1_111" x1="206.751" y1="149.463" x2="163.143" y2="125.928" gradientUnits="userSpaceOnUse">
<stop stop-color="#120F11"/>
<stop offset="1" stop-color="#333232"/>
</linearGradient>
<linearGradient id="paint11_linear_1_111" x1="187.005" y1="157.319" x2="160.735" y2="50.0707" gradientUnits="userSpaceOnUse">
<stop stop-color="#120F11"/>
<stop offset="1" stop-color="#333232"/>
</linearGradient>
<linearGradient id="paint12_linear_1_111" x1="162.618" y1="123.43" x2="66.7204" y2="54.4915" gradientUnits="userSpaceOnUse">
<stop stop-color="#120F11"/>
<stop offset="1" stop-color="#333232"/>
</linearGradient>
<linearGradient id="paint13_linear_1_111" x1="145.363" y1="167.518" x2="119.081" y2="60.2701" gradientUnits="userSpaceOnUse">
<stop stop-color="#120F11"/>
<stop offset="1" stop-color="#333232"/>
</linearGradient>
<linearGradient id="paint14_linear_1_111" x1="8.34468" y1="91.3752" x2="78.8855" y2="152.746" gradientUnits="userSpaceOnUse">
<stop stop-color="#120F11"/>
<stop offset="1" stop-color="#333232"/>
</linearGradient>
<linearGradient id="paint15_linear_1_111" x1="110.245" y1="130.4" x2="44.8087" y2="94.806" gradientUnits="userSpaceOnUse">
<stop stop-color="#120F11"/>
<stop offset="1" stop-color="#333232"/>
</linearGradient>
<linearGradient id="paint16_linear_1_111" x1="229.498" y1="158.242" x2="71.8555" y2="233.786" gradientUnits="userSpaceOnUse">
<stop stop-color="#120F11"/>
<stop offset="1" stop-color="#333232"/>
</linearGradient>
<linearGradient id="paint17_linear_1_111" x1="159.021" y1="183.764" x2="136.281" y2="210.409" gradientUnits="userSpaceOnUse">
<stop stop-color="#120F11"/>
<stop offset="1" stop-color="#333232"/>
</linearGradient>
<linearGradient id="paint18_linear_1_111" x1="104.219" y1="216.56" x2="208.598" y2="216.56" gradientUnits="userSpaceOnUse">
<stop stop-color="#120F11"/>
<stop offset="1" stop-color="#333232"/>
</linearGradient>
<linearGradient id="paint19_linear_1_111" x1="119.043" y1="237.809" x2="208.599" y2="237.809" gradientUnits="userSpaceOnUse">
<stop stop-color="#120F11"/>
<stop offset="1" stop-color="#333232"/>
</linearGradient>
<linearGradient id="paint20_linear_1_111" x1="177.976" y1="301.093" x2="207.803" y2="200.69" gradientUnits="userSpaceOnUse">
<stop stop-color="#120F11"/>
<stop offset="1" stop-color="#333232"/>
</linearGradient>
<linearGradient id="paint21_linear_1_111" x1="104.219" y1="236.631" x2="120.441" y2="236.631" gradientUnits="userSpaceOnUse">
<stop stop-color="#120F11"/>
<stop offset="1" stop-color="#333232"/>
</linearGradient>
<linearGradient id="paint22_linear_1_111" x1="115.057" y1="208.316" x2="84.4996" y2="200.74" gradientUnits="userSpaceOnUse">
<stop stop-color="#120F11"/>
<stop offset="1" stop-color="#333232"/>
</linearGradient>
<linearGradient id="paint23_linear_1_111" x1="120.246" y1="255.451" x2="19.7143" y2="231.497" gradientUnits="userSpaceOnUse">
<stop stop-color="#120F11"/>
<stop offset="1" stop-color="#333232"/>
</linearGradient>
<linearGradient id="paint24_linear_1_111" x1="122.324" y1="246.721" x2="21.8044" y2="222.767" gradientUnits="userSpaceOnUse">
<stop stop-color="#120F11"/>
<stop offset="1" stop-color="#333232"/>
</linearGradient>
<linearGradient id="paint25_linear_1_111" x1="104.218" y1="261.705" x2="120.44" y2="261.705" gradientUnits="userSpaceOnUse">
<stop stop-color="#120F11"/>
<stop offset="1" stop-color="#333232"/>
</linearGradient>
<linearGradient id="paint26_linear_1_111" x1="118.508" y1="262.773" x2="17.9767" y2="238.819" gradientUnits="userSpaceOnUse">
<stop stop-color="#120F11"/>
<stop offset="1" stop-color="#333232"/>
</linearGradient>
<linearGradient id="paint27_linear_1_111" x1="70.0247" y1="250.133" x2="47.95" y2="197.267" gradientUnits="userSpaceOnUse">
<stop stop-color="#120F11"/>
<stop offset="1" stop-color="#333232"/>
</linearGradient>
<linearGradient id="paint28_linear_1_111" x1="127.33" y1="289.194" x2="-8.62114" y2="259.221" gradientUnits="userSpaceOnUse">
<stop stop-color="#120F11"/>
<stop offset="1" stop-color="#333232"/>
</linearGradient>
<linearGradient id="paint29_linear_1_111" x1="97.8994" y1="199.44" x2="25.3336" y2="158.972" gradientUnits="userSpaceOnUse">
<stop stop-color="#120F11"/>
<stop offset="1" stop-color="#333232"/>
</linearGradient>
<linearGradient id="paint30_linear_1_111" x1="88.8349" y1="180.644" x2="10.3172" y2="195.272" gradientUnits="userSpaceOnUse">
<stop stop-color="#120F11"/>
<stop offset="1" stop-color="#333232"/>
</linearGradient>
<linearGradient id="paint31_linear_1_111" x1="96.5094" y1="221.236" x2="16.8322" y2="236.162" gradientUnits="userSpaceOnUse">
<stop stop-color="#120F11"/>
<stop offset="1" stop-color="#333232"/>
</linearGradient>
<linearGradient id="paint32_linear_1_111" x1="66.756" y1="251.493" x2="44.6813" y2="198.627" gradientUnits="userSpaceOnUse">
<stop stop-color="#120F11"/>
<stop offset="1" stop-color="#333232"/>
</linearGradient>
<linearGradient id="paint33_linear_1_111" x1="93.8534" y1="207.502" x2="15.3235" y2="222.143" gradientUnits="userSpaceOnUse">
<stop stop-color="#120F11"/>
<stop offset="1" stop-color="#333232"/>
</linearGradient>
<linearGradient id="paint34_linear_1_111" x1="98.592" y1="198.214" x2="26.0141" y2="157.734" gradientUnits="userSpaceOnUse">
<stop stop-color="#120F11"/>
<stop offset="1" stop-color="#333232"/>
</linearGradient>
<linearGradient id="paint35_linear_1_111" x1="88.6158" y1="179.442" x2="10.0981" y2="194.082" gradientUnits="userSpaceOnUse">
<stop stop-color="#120F11"/>
<stop offset="1" stop-color="#333232"/>
</linearGradient>
<linearGradient id="paint36_linear_1_111" x1="66.5616" y1="135.123" x2="-25.2177" y2="176.823" gradientUnits="userSpaceOnUse">
<stop stop-color="#120F11"/>
<stop offset="1" stop-color="#333232"/>
</linearGradient>
<linearGradient id="paint37_linear_1_111" x1="1.79512" y1="294.78" x2="81.2632" y2="285.951" gradientUnits="userSpaceOnUse">
<stop stop-color="#120F11"/>
<stop offset="1" stop-color="#333232"/>
</linearGradient>
<linearGradient id="paint38_linear_1_111" x1="129.736" y1="278.278" x2="-6.2152" y2="248.317" gradientUnits="userSpaceOnUse">
<stop stop-color="#120F11"/>
<stop offset="1" stop-color="#333232"/>
</linearGradient>
<linearGradient id="paint39_linear_1_111" x1="-1.6923" y1="263.429" x2="77.7758" y2="254.6" gradientUnits="userSpaceOnUse">
<stop stop-color="#120F11"/>
<stop offset="1" stop-color="#333232"/>
</linearGradient>
<linearGradient id="paint40_linear_1_111" x1="100.853" y1="279.274" x2="-55.8903" y2="435.176" gradientUnits="userSpaceOnUse">
<stop stop-color="#120F11"/>
<stop offset="1" stop-color="#333232"/>
</linearGradient>
<linearGradient id="paint41_linear_1_111" x1="114.475" y1="292.958" x2="-42.2684" y2="448.86" gradientUnits="userSpaceOnUse">
<stop stop-color="#120F11"/>
<stop offset="1" stop-color="#333232"/>
</linearGradient>
<linearGradient id="paint42_linear_1_111" x1="95.8586" y1="369.465" x2="110.37" y2="276.308" gradientUnits="userSpaceOnUse">
<stop stop-color="#120F11"/>
<stop offset="1" stop-color="#333232"/>
</linearGradient>
<linearGradient id="paint43_linear_1_111" x1="109.723" y1="285.891" x2="175.125" y2="225.799" gradientUnits="userSpaceOnUse">
<stop stop-color="#120F11"/>
<stop offset="1" stop-color="#333232"/>
</linearGradient>
<linearGradient id="paint44_linear_1_111" x1="112.141" y1="360.541" x2="187.733" y2="259.33" gradientUnits="userSpaceOnUse">
<stop stop-color="#120F11"/>
<stop offset="1" stop-color="#333232"/>
</linearGradient>
<linearGradient id="paint45_linear_1_111" x1="135.314" y1="377.856" x2="210.907" y2="276.633" gradientUnits="userSpaceOnUse">
<stop stop-color="#120F11"/>
<stop offset="1" stop-color="#333232"/>
</linearGradient>
<linearGradient id="paint46_linear_1_111" x1="120.453" y1="305.586" x2="160.37" y2="305.586" gradientUnits="userSpaceOnUse">
<stop stop-color="#120F11"/>
<stop offset="1" stop-color="#333232"/>
</linearGradient>
<linearGradient id="paint47_linear_1_111" x1="109" y1="60" x2="109" y2="424.5" gradientUnits="userSpaceOnUse">
<stop stop-opacity="0.4"/>
<stop offset="0.323731"/>
</linearGradient>
<linearGradient id="paint48_linear_1_111" x1="113" y1="223.5" x2="164" y2="223.5" gradientUnits="userSpaceOnUse">
<stop stop-color="white"/>
<stop offset="1" stop-color="white" stop-opacity="0"/>
</linearGradient>
<linearGradient id="paint49_linear_1_111" x1="113" y1="223.5" x2="164" y2="223.5" gradientUnits="userSpaceOnUse">
<stop stop-color="white"/>
<stop offset="1" stop-color="white" stop-opacity="0"/>
</linearGradient>
<linearGradient id="paint50_linear_1_111" x1="113" y1="223.5" x2="164" y2="223.5" gradientUnits="userSpaceOnUse">
<stop stop-color="white"/>
<stop offset="1" stop-color="white" stop-opacity="0"/>
</linearGradient>
<clipPath id="clip0_1_111">
<rect x="16" y="60" width="186" height="296" rx="16" fill="white"/>
</clipPath>
</defs>
</svg>
