<svg width="71" height="24" viewBox="0 0 71 24" fill="none" xmlns="http://www.w3.org/2000/svg">
<path d="M9.212 8.332L10.472 10.572L6.636 12L10.472 13.428L9.184 15.724L5.992 13.204L6.58 17.264H4.004L4.536 13.204L1.344 15.78L0 13.4L3.808 11.972L0 10.6L1.288 8.304L4.564 10.824L4.004 6.736H6.608L5.992 10.824L9.212 8.332Z" fill="url(#paint0_linear_1_269)" fill-opacity="0.3"/>
<path d="M23.3214 8.332L24.5814 10.572L20.7454 12L24.5814 13.428L23.2934 15.724L20.1014 13.204L20.6894 17.264H18.1134L18.6454 13.204L15.4534 15.78L14.1094 13.4L17.9174 11.972L14.1094 10.6L15.3974 8.304L18.6734 10.824L18.1134 6.736H20.7174L20.1014 10.824L23.3214 8.332Z" fill="url(#paint1_linear_1_269)" fill-opacity="0.3"/>
<path d="M37.4308 8.332L38.6908 10.572L34.8548 12L38.6908 13.428L37.4028 15.724L34.2108 13.204L34.7988 17.264H32.2228L32.7547 13.204L29.5627 15.78L28.2188 13.4L32.0267 11.972L28.2188 10.6L29.5068 8.304L32.7827 10.824L32.2228 6.736H34.8268L34.2108 10.824L37.4308 8.332Z" fill="url(#paint2_linear_1_269)" fill-opacity="0.3"/>
<path d="M57.94 6.08C58.2908 6.02623 58.6451 5.99949 59 6C62.18 6 65.17 8.29 66.91 12C66.6439 12.5646 66.3433 13.1123 66.01 13.64C65.9042 13.8038 65.8486 13.995 65.85 14.19C65.8522 14.4082 65.9258 14.6198 66.0595 14.7923C66.1931 14.9648 66.3796 15.0889 66.5903 15.1455C66.8011 15.2022 67.0246 15.1883 67.2268 15.1061C67.4289 15.0238 67.5986 14.8777 67.71 14.69C68.1759 13.9579 68.5806 13.1887 68.92 12.39C68.9737 12.2652 69.0013 12.1308 69.0013 11.995C69.0013 11.8592 68.9737 11.7248 68.92 11.6C66.9 6.91 63.1 4 59 4C58.5307 3.99763 58.0621 4.0378 57.6 4.12C57.4687 4.14232 57.343 4.1903 57.2303 4.26118C57.1175 4.33206 57.0198 4.42446 56.9427 4.5331C56.8656 4.64174 56.8107 4.76451 56.7811 4.89437C56.7514 5.02424 56.7477 5.15868 56.77 5.29C56.7923 5.42132 56.8403 5.54696 56.9112 5.65974C56.9821 5.77252 57.0745 5.87024 57.1831 5.94731C57.2917 6.02439 57.4145 6.07931 57.5444 6.10893C57.6742 6.13856 57.8087 6.14232 57.94 6.12V6.08ZM50.71 2.29C50.6168 2.19676 50.5061 2.1228 50.3843 2.07234C50.2624 2.02188 50.1319 1.99591 50 1.99591C49.8681 1.99591 49.7376 2.02188 49.6158 2.07234C49.4939 2.1228 49.3832 2.19676 49.29 2.29C49.1017 2.4783 48.9959 2.7337 48.9959 3C48.9959 3.2663 49.1017 3.52169 49.29 3.71L52.39 6.8C50.9756 8.16153 49.8499 9.79399 49.08 11.6C49.0249 11.7262 48.9965 11.8623 48.9965 12C48.9965 12.1377 49.0249 12.2738 49.08 12.4C51.1 17.09 54.9 20 59 20C60.7971 19.9876 62.5518 19.4525 64.05 18.46L67.29 21.71C67.383 21.8037 67.4936 21.8781 67.6154 21.9289C67.7373 21.9797 67.868 22.0058 68 22.0058C68.132 22.0058 68.2627 21.9797 68.3846 21.9289C68.5064 21.8781 68.617 21.8037 68.71 21.71C68.8037 21.617 68.8781 21.5064 68.9289 21.3846C68.9797 21.2627 69.0058 21.132 69.0058 21C69.0058 20.868 68.9797 20.7373 68.9289 20.6154C68.8781 20.4936 68.8037 20.383 68.71 20.29L50.71 2.29ZM57.07 11.48L59.52 13.93C59.351 13.9785 59.1758 14.002 59 14C58.4696 14 57.9609 13.7893 57.5858 13.4142C57.2107 13.0391 57 12.5304 57 12C56.998 11.8242 57.0215 11.649 57.07 11.48ZM59 18C55.82 18 52.83 15.71 51.1 12C51.7461 10.5737 52.6631 9.28658 53.8 8.21L55.57 10C55.1542 10.7588 54.9957 11.6319 55.1183 12.4885C55.2408 13.345 55.6377 14.1387 56.2495 14.7505C56.8613 15.3623 57.655 15.7592 58.5115 15.8817C59.3681 16.0043 60.2412 15.8458 61 15.43L62.59 17C61.5011 17.6409 60.2634 17.9856 59 18Z" fill="#A90808"/>
<defs>
<linearGradient id="paint0_linear_1_269" x1="2" y1="11.5" x2="53" y2="11.5" gradientUnits="userSpaceOnUse">
<stop stop-color="white"/>
<stop offset="1" stop-color="white" stop-opacity="0"/>
</linearGradient>
<linearGradient id="paint1_linear_1_269" x1="2" y1="11.5" x2="53" y2="11.5" gradientUnits="userSpaceOnUse">
<stop stop-color="white"/>
<stop offset="1" stop-color="white" stop-opacity="0"/>
</linearGradient>
<linearGradient id="paint2_linear_1_269" x1="2" y1="11.5" x2="53" y2="11.5" gradientUnits="userSpaceOnUse">
<stop stop-color="white"/>
<stop offset="1" stop-color="white" stop-opacity="0"/>
</linearGradient>
</defs>
</svg>
