<svg width="20" height="20" viewBox="0 0 20 20" fill="none" xmlns="http://www.w3.org/2000/svg">
<path d="M17.6333 13.4417L15.9667 12.4833L16.7083 12.2833C16.8173 12.258 16.92 12.2109 17.0103 12.145C17.1007 12.0791 17.1768 11.9957 17.2343 11.8997C17.2917 11.8038 17.3293 11.6972 17.3446 11.5864C17.36 11.4757 17.353 11.3629 17.3239 11.2549C17.2948 11.147 17.2443 11.0459 17.1753 10.9579C17.1063 10.8698 17.0203 10.7966 16.9225 10.7425C16.8246 10.6883 16.7168 10.6545 16.6056 10.6429C16.4944 10.6313 16.3819 10.6422 16.275 10.675L13.925 11.3083L11.6667 10L13.925 8.69167L16.275 9.325H16.4917C16.7127 9.35373 16.9361 9.29349 17.1127 9.15753C17.2892 9.02156 17.4046 8.82101 17.4333 8.6C17.4621 8.37899 17.4018 8.15561 17.2659 7.97901C17.1299 7.80242 16.9293 7.68706 16.7083 7.65833L15.9667 7.5L17.6333 6.54167C17.7285 6.48695 17.812 6.41401 17.8791 6.32703C17.9461 6.24004 17.9953 6.1407 18.0239 6.03469C18.0526 5.92868 18.06 5.81806 18.0459 5.70916C18.0318 5.60026 17.9964 5.49521 17.9417 5.4C17.8869 5.30479 17.814 5.22129 17.727 5.15427C17.64 5.08725 17.5407 5.03802 17.4347 5.00939C17.3287 4.98075 17.2181 4.97329 17.1092 4.9874C17.0003 5.00152 16.8952 5.03695 16.8 5.09167L15 6.14167L15.25 5.21667C15.2828 5.10974 15.2937 4.99731 15.2821 4.88607C15.2705 4.77483 15.2367 4.66707 15.1825 4.56919C15.1284 4.47132 15.0552 4.38534 14.9671 4.31637C14.8791 4.24741 14.778 4.19687 14.6701 4.16778C14.5621 4.13868 14.4493 4.13162 14.3386 4.14702C14.2278 4.16241 14.1212 4.19995 14.0253 4.25739C13.9293 4.31483 13.8459 4.39099 13.78 4.48135C13.7141 4.57171 13.667 4.67441 13.6417 4.78333L12.9583 7.28333L10.8333 8.55833V5.95L12.5583 4.225C12.7135 4.06886 12.8007 3.85765 12.8007 3.6375C12.8007 3.41734 12.7135 3.20614 12.5583 3.05C12.4809 2.97189 12.3887 2.9099 12.2871 2.86759C12.1856 2.82528 12.0767 2.8035 11.9667 2.8035C11.8567 2.8035 11.7477 2.82528 11.6462 2.86759C11.5446 2.9099 11.4525 2.97189 11.375 3.05L10.8333 3.59167V1.66667C10.8333 1.44565 10.7455 1.23369 10.5893 1.07741C10.433 0.92113 10.221 0.833333 10 0.833333C9.77898 0.833333 9.56702 0.92113 9.41074 1.07741C9.25446 1.23369 9.16667 1.44565 9.16667 1.66667V3.725L8.49166 3.05C8.4142 2.97189 8.32203 2.9099 8.22048 2.86759C8.11893 2.82528 8.01001 2.8035 7.9 2.8035C7.78999 2.8035 7.68107 2.82528 7.57952 2.86759C7.47797 2.9099 7.3858 2.97189 7.30833 3.05C7.15312 3.20614 7.066 3.41734 7.066 3.6375C7.066 3.85765 7.15312 4.06886 7.30833 4.225L9.16667 6.08333V8.58333L7.025 7.31667L6.34167 4.81667C6.31629 4.70774 6.26925 4.60504 6.20334 4.51469C6.13744 4.42433 6.05402 4.34816 5.95806 4.29072C5.86209 4.23328 5.75555 4.19575 5.64478 4.18035C5.534 4.16496 5.42126 4.17202 5.31327 4.20111C5.20528 4.23021 5.10426 4.28074 5.01621 4.34971C4.92817 4.41867 4.8549 4.50465 4.80079 4.60252C4.74667 4.7004 4.71281 4.80817 4.70122 4.9194C4.68963 5.03064 4.70055 5.14307 4.73333 5.25L5 6.14167L3.2 5.10833C3.10479 5.05362 2.99974 5.01819 2.89084 5.00407C2.78194 4.98995 2.67132 4.99742 2.56531 5.02605C2.45929 5.05468 2.35996 5.10392 2.27297 5.17094C2.18598 5.23796 2.11305 5.32146 2.05833 5.41667C2.00361 5.51188 1.96819 5.61693 1.95407 5.72583C1.93995 5.83473 1.94742 5.94534 1.97605 6.05136C2.03388 6.26546 2.17438 6.44783 2.36666 6.55833L4.03333 7.5L3.33333 7.71667C3.11232 7.7454 2.91177 7.86075 2.77581 8.03735C2.63984 8.21394 2.5796 8.43732 2.60833 8.65833C2.63706 8.87935 2.75242 9.0799 2.92901 9.21586C3.10561 9.35182 3.32898 9.41207 3.55 9.38333H3.76667L6.11667 8.75L8.33333 10L6.075 11.3083L3.725 10.675C3.61473 10.6341 3.49705 10.6169 3.37969 10.6247C3.26232 10.6325 3.14794 10.6651 3.04406 10.7202C2.94018 10.7754 2.84915 10.8519 2.77697 10.9448C2.70478 11.0377 2.65308 11.1448 2.62524 11.259C2.59741 11.3733 2.59409 11.4922 2.6155 11.6079C2.6369 11.7235 2.68255 11.8333 2.74943 11.9301C2.81632 12.0268 2.90292 12.1083 3.00356 12.1692C3.1042 12.2301 3.21659 12.269 3.33333 12.2833L4.075 12.4833L2.40833 13.4417C2.21605 13.5522 2.07554 13.7345 2.01772 13.9486C1.95989 14.1627 1.98949 14.3911 2.1 14.5833C2.21051 14.7756 2.39287 14.9161 2.60697 14.9739C2.82108 15.0318 3.04938 15.0022 3.24167 14.8917L5 13.8583L4.75 14.7833C4.71696 14.89 4.70571 15.0022 4.71689 15.1133C4.72808 15.2244 4.76149 15.3322 4.81512 15.4301C4.86876 15.5281 4.94153 15.6142 5.02912 15.6835C5.11671 15.7528 5.21733 15.8037 5.325 15.8333C5.39699 15.8415 5.46968 15.8415 5.54167 15.8333C5.7298 15.8398 5.91458 15.7823 6.0659 15.6704C6.21722 15.5584 6.32617 15.3985 6.375 15.2167L7.05833 12.7167L9.16667 11.4417V14.05L7.44167 15.775C7.28646 15.9311 7.19934 16.1423 7.19934 16.3625C7.19934 16.5827 7.28646 16.7939 7.44167 16.95C7.51884 17.0287 7.61088 17.0914 7.71244 17.1343C7.81401 17.1772 7.92308 17.1995 8.03333 17.2C8.14359 17.1995 8.25266 17.1772 8.35422 17.1343C8.45578 17.0914 8.54782 17.0287 8.625 16.95L9.16667 16.4083V18.3333C9.16667 18.5543 9.25446 18.7663 9.41074 18.9226C9.56702 19.0789 9.77898 19.1667 10 19.1667C10.221 19.1667 10.433 19.0789 10.5893 18.9226C10.7455 18.7663 10.8333 18.5543 10.8333 18.3333V16.275L11.5083 16.95C11.5858 17.0281 11.678 17.0901 11.7795 17.1324C11.8811 17.1747 11.99 17.1965 12.1 17.1965C12.21 17.1965 12.3189 17.1747 12.4205 17.1324C12.522 17.0901 12.6142 17.0281 12.6917 16.95C12.8469 16.7939 12.934 16.5827 12.934 16.3625C12.934 16.1423 12.8469 15.9311 12.6917 15.775L10.8333 13.9167V11.4167L12.975 12.6583L13.6583 15.1583C13.7072 15.3401 13.8161 15.5 13.9674 15.612C14.1188 15.724 14.3035 15.7814 14.4917 15.775C14.5637 15.7832 14.6363 15.7832 14.7083 15.775C14.8147 15.747 14.9145 15.6981 15.002 15.6313C15.0894 15.5645 15.1627 15.4811 15.2177 15.3858C15.2727 15.2905 15.3083 15.1852 15.3224 15.0761C15.3366 14.967 15.3289 14.8562 15.3 14.75L15 13.8583L16.7833 14.8917C16.8785 14.9464 16.9836 14.9818 17.0925 14.9959C17.2014 15.01 17.312 15.0026 17.418 14.9739C17.524 14.9453 17.6234 14.8961 17.7104 14.8291C17.7973 14.762 17.8703 14.6785 17.925 14.5833C17.9797 14.4881 18.0151 14.3831 18.0293 14.2742C18.0434 14.1653 18.0359 14.0547 18.0073 13.9486C17.9786 13.8426 17.9294 13.7433 17.8624 13.6563C17.7954 13.5693 17.7119 13.4964 17.6167 13.4417H17.6333Z" fill="#A90808"/>
</svg>
